<?xml version="1.0" encoding="UTF-8"?>
<svg id="Layer_1" data-name="Layer 1" xmlns="http://www.w3.org/2000/svg" viewBox="0 0 920.46 533.48">
  <defs>
    <style>
      .cls-1 {
        fill: #2ad870;
      }

      .cls-1, .cls-2, .cls-3 {
        stroke: #000;
        stroke-miterlimit: 10;
        stroke-width: .62px;
      }

      .cls-2 {
        fill: #cc1212;
      }

      .cls-3 {
        fill: #3890f9;
      }

      .cls-4, .cls-5 {
        stroke-width: 0px;
      }

      .cls-5 {
        fill: #fff;
      }
    </style>
  </defs>
  <g>
    <polygon class="cls-5" points="640.42 0 920.46 45.88 920.46 487.54 640.42 533.48 640.42 0"/>
    <g>
      <polygon class="cls-4" points="642.88 2.34 660.11 5.17 660.08 37.86 642.86 35.39 642.88 2.34"/>
      <polygon class="cls-4" points="660.11 5.17 677.33 7.99 677.3 40.34 660.08 37.86 660.11 5.17"/>
      <polygon class="cls-4" points="677.33 7.99 694.55 10.82 694.53 42.81 677.3 40.34 677.33 7.99"/>
      <polygon class="cls-4" points="694.55 10.82 711.77 13.65 711.75 45.28 694.53 42.81 694.55 10.82"/>
      <polygon class="cls-4" points="711.77 13.65 729 16.48 728.98 47.76 711.75 45.28 711.77 13.65"/>
      <polygon class="cls-4" points="729 16.48 746.22 19.31 746.2 50.23 728.98 47.76 729 16.48"/>
      <polygon class="cls-4" points="746.22 19.31 763.44 22.13 763.43 52.71 746.2 50.23 746.22 19.31"/>
      <polygon class="cls-4" points="763.44 22.13 780.66 24.96 780.65 55.18 763.43 52.71 763.44 22.13"/>
      <polygon class="cls-4" points="780.66 24.96 797.89 27.79 797.87 57.66 780.65 55.18 780.66 24.96"/>
      <polygon class="cls-4" points="797.89 27.79 815.11 30.62 815.1 60.13 797.87 57.66 797.89 27.79"/>
      <polygon class="cls-4" points="815.11 30.62 832.33 33.44 832.32 62.6 815.1 60.13 815.11 30.62"/>
      <polygon class="cls-4" points="832.33 33.44 849.55 36.27 849.55 65.08 832.32 62.6 832.33 33.44"/>
      <polygon class="cls-4" points="849.55 36.27 866.78 39.1 866.77 67.55 849.55 65.08 849.55 36.27"/>
      <polygon class="cls-4" points="866.78 39.1 884 41.93 883.99 70.03 866.77 67.55 866.78 39.1"/>
      <polygon class="cls-4" points="884 41.93 901.22 44.76 901.22 72.5 883.99 70.03 884 41.93"/>
      <polygon class="cls-4" points="901.22 44.76 918.44 47.58 918.44 74.97 901.22 72.5 901.22 44.76"/>
      <polygon class="cls-4" points="642.86 35.39 660.08 37.86 660.05 70.56 642.83 68.44 642.86 35.39"/>
      <polygon class="cls-4" points="660.08 37.86 677.3 40.34 677.28 72.68 660.05 70.56 660.08 37.86"/>
      <polygon class="cls-4" points="677.3 40.34 694.53 42.81 694.51 74.8 677.28 72.68 677.3 40.34"/>
      <polygon class="cls-4" points="694.53 42.81 711.75 45.28 711.73 76.92 694.51 74.8 694.53 42.81"/>
      <polygon class="cls-4" points="711.75 45.28 728.98 47.76 728.96 79.04 711.73 76.92 711.75 45.28"/>
      <polygon class="cls-4" points="728.98 47.76 746.2 50.23 746.18 81.16 728.96 79.04 728.98 47.76"/>
      <polygon class="cls-4" points="746.2 50.23 763.43 52.71 763.41 83.28 746.18 81.16 746.2 50.23"/>
      <polygon class="cls-4" points="763.43 52.71 780.65 55.18 780.64 85.4 763.41 83.28 763.43 52.71"/>
      <polygon class="cls-4" points="780.65 55.18 797.87 57.66 797.86 87.52 780.64 85.4 780.65 55.18"/>
      <polygon class="cls-4" points="797.87 57.66 815.1 60.13 815.09 89.64 797.86 87.52 797.87 57.66"/>
      <polygon class="cls-4" points="815.1 60.13 832.32 62.6 832.31 91.76 815.09 89.64 815.1 60.13"/>
      <polygon class="cls-4" points="832.32 62.6 849.55 65.08 849.54 93.88 832.31 91.76 832.32 62.6"/>
      <polygon class="cls-4" points="849.55 65.08 866.77 67.55 866.77 96 849.54 93.88 849.55 65.08"/>
      <polygon class="cls-4" points="866.77 67.55 883.99 70.03 883.99 98.12 866.77 96 866.77 67.55"/>
      <polygon class="cls-4" points="883.99 70.03 901.22 72.5 901.22 100.24 883.99 98.12 883.99 70.03"/>
      <polygon class="cls-4" points="901.22 72.5 918.44 74.97 918.44 102.37 901.22 100.24 901.22 72.5"/>
      <polygon class="cls-4" points="642.83 68.44 660.05 70.56 660.03 103.25 642.8 101.49 642.83 68.44"/>
      <polygon class="cls-4" points="660.05 70.56 677.28 72.68 677.26 105.02 660.03 103.25 660.05 70.56"/>
      <polygon class="cls-4" points="677.28 72.68 694.51 74.8 694.48 106.79 677.26 105.02 677.28 72.68"/>
      <polygon class="cls-4" points="694.51 74.8 711.73 76.92 711.71 108.55 694.48 106.79 694.51 74.8"/>
      <polygon class="cls-4" points="711.73 76.92 728.96 79.04 728.94 110.32 711.71 108.55 711.73 76.92"/>
      <polygon class="cls-4" points="728.96 79.04 746.18 81.16 746.17 112.09 728.94 110.32 728.96 79.04"/>
      <polygon class="cls-4" points="746.18 81.16 763.41 83.28 763.39 113.85 746.17 112.09 746.18 81.16"/>
      <polygon class="cls-4" points="763.41 83.28 780.64 85.4 780.62 115.62 763.39 113.85 763.41 83.28"/>
      <polygon class="cls-4" points="780.64 85.4 797.86 87.52 797.85 117.39 780.62 115.62 780.64 85.4"/>
      <polygon class="cls-4" points="797.86 87.52 815.09 89.64 815.08 119.15 797.85 117.39 797.86 87.52"/>
      <polygon class="cls-4" points="815.09 89.64 832.31 91.76 832.3 120.92 815.08 119.15 815.09 89.64"/>
      <polygon class="cls-4" points="832.31 91.76 849.54 93.88 849.53 122.69 832.3 120.92 832.31 91.76"/>
      <polygon class="cls-4" points="849.54 93.88 866.77 96 866.76 124.46 849.53 122.69 849.54 93.88"/>
      <polygon class="cls-4" points="866.77 96 883.99 98.12 883.99 126.22 866.76 124.46 866.77 96"/>
      <polygon class="cls-4" points="883.99 98.12 901.22 100.24 901.22 127.99 883.99 126.22 883.99 98.12"/>
      <polygon class="cls-4" points="901.22 100.24 918.44 102.37 918.44 129.76 901.22 127.99 901.22 100.24"/>
      <polygon class="cls-4" points="642.8 101.49 660.03 103.25 660 135.95 642.77 134.53 642.8 101.49"/>
      <polygon class="cls-4" points="660.03 103.25 677.26 105.02 677.23 137.36 660 135.95 660.03 103.25"/>
      <polygon class="cls-4" points="677.26 105.02 694.48 106.79 694.46 138.77 677.23 137.36 677.26 105.02"/>
      <polygon class="cls-4" points="694.48 106.79 711.71 108.55 711.69 140.19 694.46 138.77 694.48 106.79"/>
      <polygon class="cls-3" points="711.71 108.55 728.94 110.32 728.92 141.6 711.69 140.19 711.71 108.55"/>
      <polygon class="cls-3" points="728.94 110.32 746.17 112.09 746.15 143.01 728.92 141.6 728.94 110.32"/>
      <polygon class="cls-3" points="746.17 112.09 763.39 113.85 763.38 144.43 746.15 143.01 746.17 112.09"/>
      <polygon class="cls-3" points="763.39 113.85 780.62 115.62 780.61 145.84 763.38 144.43 763.39 113.85"/>
      <polygon class="cls-4" points="780.62 115.62 797.85 117.39 797.84 147.25 780.61 145.84 780.62 115.62"/>
      <polygon class="cls-4" points="797.85 117.39 815.08 119.15 815.07 148.67 797.84 147.25 797.85 117.39"/>
      <polygon class="cls-4" points="815.08 119.15 832.3 120.92 832.3 150.08 815.07 148.67 815.08 119.15"/>
      <polygon class="cls-4" points="832.3 120.92 849.53 122.69 849.53 151.49 832.3 150.08 832.3 120.92"/>
      <polygon class="cls-4" points="849.53 122.69 866.76 124.46 866.75 152.91 849.53 151.49 849.53 122.69"/>
      <polygon class="cls-4" points="866.76 124.46 883.99 126.22 883.98 154.32 866.75 152.91 866.76 124.46"/>
      <polygon class="cls-4" points="883.99 126.22 901.22 127.99 901.21 155.73 883.98 154.32 883.99 126.22"/>
      <polygon class="cls-4" points="901.22 127.99 918.44 129.76 918.44 157.15 901.21 155.73 901.22 127.99"/>
      <polygon class="cls-4" points="642.77 134.53 660 135.95 659.98 168.64 642.75 167.58 642.77 134.53"/>
      <polygon class="cls-4" points="660 135.95 677.23 137.36 677.21 169.7 659.98 168.64 660 135.95"/>
      <polygon class="cls-4" points="677.23 137.36 694.46 138.77 694.44 170.76 677.21 169.7 677.23 137.36"/>
      <polygon class="cls-3" points="694.46 138.77 711.69 140.19 711.67 171.82 694.44 170.76 694.46 138.77"/>
      <polygon class="cls-4" points="711.69 140.19 728.92 141.6 728.9 172.88 711.67 171.82 711.69 140.19"/>
      <polygon class="cls-4" points="728.92 141.6 746.15 143.01 746.13 173.94 728.9 172.88 728.92 141.6"/>
      <polygon class="cls-4" points="746.15 143.01 763.38 144.43 763.36 175 746.13 173.94 746.15 143.01"/>
      <polygon class="cls-4" points="763.38 144.43 780.61 145.84 780.59 176.06 763.36 175 763.38 144.43"/>
      <polygon class="cls-3" points="780.61 145.84 797.84 147.25 797.83 177.12 780.59 176.06 780.61 145.84"/>
      <polygon class="cls-4" points="797.84 147.25 815.07 148.67 815.06 178.18 797.83 177.12 797.84 147.25"/>
      <polygon class="cls-4" points="815.07 148.67 832.3 150.08 832.29 179.24 815.06 178.18 815.07 148.67"/>
      <polygon class="cls-4" points="832.3 150.08 849.53 151.49 849.52 180.3 832.29 179.24 832.3 150.08"/>
      <polygon class="cls-4" points="849.53 151.49 866.75 152.91 866.75 181.36 849.52 180.3 849.53 151.49"/>
      <polygon class="cls-4" points="866.75 152.91 883.98 154.32 883.98 182.42 866.75 181.36 866.75 152.91"/>
      <polygon class="cls-4" points="883.98 154.32 901.21 155.73 901.21 183.48 883.98 182.42 883.98 154.32"/>
      <polygon class="cls-4" points="901.21 155.73 918.44 157.15 918.44 184.54 901.21 183.48 901.21 155.73"/>
      <polygon class="cls-4" points="642.75 167.58 659.98 168.64 659.95 201.34 642.72 200.63 642.75 167.58"/>
      <polygon class="cls-4" points="659.98 168.64 677.21 169.7 677.18 202.04 659.95 201.34 659.98 168.64"/>
      <polygon class="cls-4" points="677.21 169.7 694.44 170.76 694.42 202.75 677.18 202.04 677.21 169.7"/>
      <polygon class="cls-3" points="694.44 170.76 711.67 171.82 711.65 203.46 694.42 202.75 694.44 170.76"/>
      <polygon class="cls-4" points="711.67 171.82 728.9 172.88 728.88 204.16 711.65 203.46 711.67 171.82"/>
      <polygon class="cls-4" points="728.9 172.88 746.13 173.94 746.12 204.87 728.88 204.16 728.9 172.88"/>
      <polygon class="cls-4" points="746.13 173.94 763.36 175 763.35 205.57 746.12 204.87 746.13 173.94"/>
      <polygon class="cls-4" points="763.36 175 780.59 176.06 780.58 206.28 763.35 205.57 763.36 175"/>
      <polygon class="cls-4" points="780.59 176.06 797.83 177.12 797.81 206.99 780.58 206.28 780.59 176.06"/>
      <polygon class="cls-4" points="797.83 177.12 815.06 178.18 815.05 207.69 797.81 206.99 797.83 177.12"/>
      <polygon class="cls-4" points="815.06 178.18 832.29 179.24 832.28 208.4 815.05 207.69 815.06 178.18"/>
      <polygon class="cls-4" points="832.29 179.24 849.52 180.3 849.51 209.1 832.28 208.4 832.29 179.24"/>
      <polygon class="cls-4" points="849.52 180.3 866.75 181.36 866.74 209.81 849.51 209.1 849.52 180.3"/>
      <polygon class="cls-4" points="866.75 181.36 883.98 182.42 883.98 210.52 866.74 209.81 866.75 181.36"/>
      <polygon class="cls-4" points="883.98 182.42 901.21 183.48 901.21 211.22 883.98 210.52 883.98 182.42"/>
      <polygon class="cls-4" points="901.21 183.48 918.44 184.54 918.44 211.93 901.21 211.22 901.21 183.48"/>
      <polygon class="cls-4" points="642.72 200.63 659.95 201.34 659.93 234.03 642.69 233.68 642.72 200.63"/>
      <polygon class="cls-4" points="659.95 201.34 677.18 202.04 677.16 234.39 659.93 234.03 659.95 201.34"/>
      <polygon class="cls-4" points="677.18 202.04 694.42 202.75 694.39 234.74 677.16 234.39 677.18 202.04"/>
      <polygon class="cls-3" points="694.42 202.75 711.65 203.46 711.63 235.09 694.39 234.74 694.42 202.75"/>
      <polygon class="cls-4" points="711.65 203.46 728.88 204.16 728.86 235.44 711.63 235.09 711.65 203.46"/>
      <polygon class="cls-4" points="728.88 204.16 746.12 204.87 746.1 235.79 728.86 235.44 728.88 204.16"/>
      <polygon class="cls-4" points="746.12 204.87 763.35 205.57 763.33 236.15 746.1 235.79 746.12 204.87"/>
      <polygon class="cls-4" points="763.35 205.57 780.58 206.28 780.57 236.5 763.33 236.15 763.35 205.57"/>
      <polygon class="cls-4" points="780.58 206.28 797.81 206.99 797.8 236.85 780.57 236.5 780.58 206.28"/>
      <polygon class="cls-4" points="797.81 206.99 815.05 207.69 815.04 237.2 797.8 236.85 797.81 206.99"/>
      <polygon class="cls-4" points="815.05 207.69 832.28 208.4 832.27 237.56 815.04 237.2 815.05 207.69"/>
      <polygon class="cls-4" points="832.28 208.4 849.51 209.1 849.5 237.91 832.27 237.56 832.28 208.4"/>
      <polygon class="cls-4" points="849.51 209.1 866.74 209.81 866.74 238.26 849.5 237.91 849.51 209.1"/>
      <polygon class="cls-4" points="866.74 209.81 883.98 210.52 883.97 238.61 866.74 238.26 866.74 209.81"/>
      <polygon class="cls-4" points="883.98 210.52 901.21 211.22 901.21 238.97 883.97 238.61 883.98 210.52"/>
      <polygon class="cls-4" points="901.21 211.22 918.44 211.93 918.44 239.32 901.21 238.97 901.21 211.22"/>
      <polygon class="cls-4" points="642.69 233.68 659.93 234.03 659.9 266.73 642.66 266.73 642.69 233.68"/>
      <polygon class="cls-4" points="659.93 234.03 677.16 234.39 677.14 266.73 659.9 266.73 659.93 234.03"/>
      <polygon class="cls-4" points="677.16 234.39 694.39 234.74 694.37 266.73 677.14 266.73 677.16 234.39"/>
      <polygon class="cls-4" points="694.39 234.74 711.63 235.09 711.61 266.72 694.37 266.73 694.39 234.74"/>
      <polygon class="cls-3" points="711.63 235.09 728.86 235.44 728.84 266.72 711.61 266.72 711.63 235.09"/>
      <polygon class="cls-3" points="728.86 235.44 746.1 235.79 746.08 266.72 728.84 266.72 728.86 235.44"/>
      <polygon class="cls-3" points="746.1 235.79 763.33 236.15 763.32 266.72 746.08 266.72 746.1 235.79"/>
      <polygon class="cls-3" points="763.33 236.15 780.57 236.5 780.55 266.72 763.32 266.72 763.33 236.15"/>
      <polygon class="cls-4" points="780.57 236.5 797.8 236.85 797.79 266.72 780.55 266.72 780.57 236.5"/>
      <polygon class="cls-4" points="797.8 236.85 815.04 237.2 815.03 266.72 797.79 266.72 797.8 236.85"/>
      <polygon class="cls-4" points="815.04 237.2 832.27 237.56 832.26 266.72 815.03 266.72 815.04 237.2"/>
      <polygon class="cls-4" points="832.27 237.56 849.5 237.91 849.5 266.72 832.26 266.72 832.27 237.56"/>
      <polygon class="cls-4" points="849.5 237.91 866.74 238.26 866.73 266.71 849.5 266.72 849.5 237.91"/>
      <polygon class="cls-4" points="866.74 238.26 883.97 238.61 883.97 266.71 866.73 266.71 866.74 238.26"/>
      <polygon class="cls-4" points="883.97 238.61 901.21 238.97 901.21 266.71 883.97 266.71 883.97 238.61"/>
      <polygon class="cls-4" points="901.21 238.97 918.44 239.32 918.44 266.71 901.21 266.71 901.21 238.97"/>
      <polygon class="cls-4" points="642.66 266.73 659.9 266.73 659.87 299.42 642.64 299.78 642.66 266.73"/>
      <polygon class="cls-4" points="659.9 266.73 677.14 266.73 677.11 299.07 659.87 299.42 659.9 266.73"/>
      <polygon class="cls-4" points="677.14 266.73 694.37 266.73 694.35 298.71 677.11 299.07 677.14 266.73"/>
      <polygon class="cls-4" points="694.37 266.73 711.61 266.72 711.59 298.36 694.35 298.71 694.37 266.73"/>
      <polygon class="cls-4" points="711.61 266.72 728.84 266.72 728.83 298 711.59 298.36 711.61 266.72"/>
      <polygon class="cls-4" points="728.84 266.72 746.08 266.72 746.06 297.65 728.83 298 728.84 266.72"/>
      <polygon class="cls-4" points="746.08 266.72 763.32 266.72 763.3 297.29 746.06 297.65 746.08 266.72"/>
      <polygon class="cls-4" points="763.32 266.72 780.55 266.72 780.54 296.94 763.3 297.29 763.32 266.72"/>
      <polygon class="cls-3" points="780.55 266.72 797.79 266.72 797.78 296.58 780.54 296.94 780.55 266.72"/>
      <polygon class="cls-4" points="797.79 266.72 815.03 266.72 815.02 296.23 797.78 296.58 797.79 266.72"/>
      <polygon class="cls-4" points="815.03 266.72 832.26 266.72 832.25 295.88 815.02 296.23 815.03 266.72"/>
      <polygon class="cls-3" points="832.26 266.72 849.5 266.72 849.49 295.52 832.25 295.88 832.26 266.72"/>
      <polygon class="cls-3" points="849.5 266.72 866.73 266.71 866.73 295.17 849.49 295.52 849.5 266.72"/>
      <polygon class="cls-4" points="866.73 266.71 883.97 266.71 883.97 294.81 866.73 295.17 866.73 266.71"/>
      <polygon class="cls-4" points="883.97 266.71 901.21 266.71 901.21 294.46 883.97 294.81 883.97 266.71"/>
      <polygon class="cls-4" points="901.21 266.71 918.44 266.71 918.44 294.1 901.21 294.46 901.21 266.71"/>
      <polygon class="cls-4" points="642.64 299.78 659.87 299.42 659.85 332.12 642.61 332.83 642.64 299.78"/>
      <polygon class="cls-4" points="659.87 299.42 677.11 299.07 677.09 331.41 659.85 332.12 659.87 299.42"/>
      <polygon class="cls-4" points="677.11 299.07 694.35 298.71 694.33 330.7 677.09 331.41 677.11 299.07"/>
      <polygon class="cls-4" points="694.35 298.71 711.59 298.36 711.57 329.99 694.33 330.7 694.35 298.71"/>
      <polygon class="cls-4" points="711.59 298.36 728.83 298 728.81 329.28 711.57 329.99 711.59 298.36"/>
      <polygon class="cls-4" points="728.83 298 746.06 297.65 746.05 328.58 728.81 329.28 728.83 298"/>
      <polygon class="cls-4" points="746.06 297.65 763.3 297.29 763.29 327.87 746.05 328.58 746.06 297.65"/>
      <polygon class="cls-4" points="763.3 297.29 780.54 296.94 780.53 327.16 763.29 327.87 763.3 297.29"/>
      <polygon class="cls-3" points="780.54 296.94 797.78 296.58 797.77 326.45 780.53 327.16 780.54 296.94"/>
      <polygon class="cls-4" points="797.78 296.58 815.02 296.23 815 325.74 797.77 326.45 797.78 296.58"/>
      <polygon class="cls-3" points="815.02 296.23 832.25 295.88 832.24 325.03 815 325.74 815.02 296.23"/>
      <polygon class="cls-4" points="832.25 295.88 849.49 295.52 849.48 324.33 832.24 325.03 832.25 295.88"/>
      <polygon class="cls-4" points="849.49 295.52 866.73 295.17 866.72 323.62 849.48 324.33 849.49 295.52"/>
      <polygon class="cls-4" points="866.73 295.17 883.97 294.81 883.96 322.91 866.72 323.62 866.73 295.17"/>
      <polygon class="cls-4" points="883.97 294.81 901.21 294.46 901.2 322.2 883.96 322.91 883.97 294.81"/>
      <polygon class="cls-4" points="901.21 294.46 918.44 294.1 918.44 321.49 901.2 322.2 901.21 294.46"/>
      <polygon class="cls-4" points="642.61 332.83 659.85 332.12 659.82 364.81 642.58 365.87 642.61 332.83"/>
      <polygon class="cls-4" points="659.85 332.12 677.09 331.41 677.06 363.75 659.82 364.81 659.85 332.12"/>
      <polygon class="cls-4" points="677.09 331.41 694.33 330.7 694.3 362.69 677.06 363.75 677.09 331.41"/>
      <polygon class="cls-4" points="694.33 330.7 711.57 329.99 711.55 361.63 694.3 362.69 694.33 330.7"/>
      <polygon class="cls-4" points="711.57 329.99 728.81 329.28 728.79 360.56 711.55 361.63 711.57 329.99"/>
      <polygon class="cls-4" points="728.81 329.28 746.05 328.58 746.03 359.5 728.79 360.56 728.81 329.28"/>
      <polygon class="cls-4" points="746.05 328.58 763.29 327.87 763.27 358.44 746.03 359.5 746.05 328.58"/>
      <polygon class="cls-4" points="763.29 327.87 780.53 327.16 780.51 357.38 763.27 358.44 763.29 327.87"/>
      <polygon class="cls-3" points="780.53 327.16 797.77 326.45 797.75 356.32 780.51 357.38 780.53 327.16"/>
      <polygon class="cls-4" points="797.77 326.45 815 325.74 814.99 355.25 797.75 356.32 797.77 326.45"/>
      <polygon class="cls-3" points="815 325.74 832.24 325.03 832.24 354.19 814.99 355.25 815 325.74"/>
      <polygon class="cls-4" points="832.24 325.03 849.48 324.33 849.48 353.13 832.24 354.19 832.24 325.03"/>
      <polygon class="cls-4" points="849.48 324.33 866.72 323.62 866.72 352.07 849.48 353.13 849.48 324.33"/>
      <polygon class="cls-4" points="866.72 323.62 883.96 322.91 883.96 351.01 866.72 352.07 866.72 323.62"/>
      <polygon class="cls-4" points="883.96 322.91 901.2 322.2 901.2 349.95 883.96 351.01 883.96 322.91"/>
      <polygon class="cls-4" points="901.2 322.2 918.44 321.49 918.44 348.88 901.2 349.95 901.2 322.2"/>
      <polygon class="cls-4" points="642.58 365.87 659.82 364.81 659.8 397.51 642.55 398.92 642.58 365.87"/>
      <polygon class="cls-4" points="659.82 364.81 677.06 363.75 677.04 396.09 659.8 397.51 659.82 364.81"/>
      <polygon class="cls-4" points="677.06 363.75 694.3 362.69 694.28 394.68 677.04 396.09 677.06 363.75"/>
      <polygon class="cls-3" points="694.3 362.69 711.55 361.63 711.53 393.26 694.28 394.68 694.3 362.69"/>
      <polygon class="cls-4" points="711.55 361.63 728.79 360.56 728.77 391.85 711.53 393.26 711.55 361.63"/>
      <polygon class="cls-4" points="728.79 360.56 746.03 359.5 746.01 390.43 728.77 391.85 728.79 360.56"/>
      <polygon class="cls-4" points="746.03 359.5 763.27 358.44 763.25 389.01 746.01 390.43 746.03 359.5"/>
      <polygon class="cls-4" points="763.27 358.44 780.51 357.38 780.5 387.6 763.25 389.01 763.27 358.44"/>
      <polygon class="cls-3" points="780.51 357.38 797.75 356.32 797.74 386.18 780.5 387.6 780.51 357.38"/>
      <polygon class="cls-4" points="797.75 356.32 814.99 355.25 814.98 384.77 797.74 386.18 797.75 356.32"/>
      <polygon class="cls-3" points="814.99 355.25 832.24 354.19 832.23 383.35 814.98 384.77 814.99 355.25"/>
      <polygon class="cls-4" points="832.24 354.19 849.48 353.13 849.47 381.94 832.23 383.35 832.24 354.19"/>
      <polygon class="cls-4" points="849.48 353.13 866.72 352.07 866.71 380.52 849.47 381.94 849.48 353.13"/>
      <polygon class="cls-4" points="866.72 352.07 883.96 351.01 883.96 379.11 866.71 380.52 866.72 352.07"/>
      <polygon class="cls-4" points="883.96 351.01 901.2 349.95 901.2 377.69 883.96 379.11 883.96 351.01"/>
      <polygon class="cls-4" points="901.2 349.95 918.44 348.88 918.44 376.27 901.2 377.69 901.2 349.95"/>
      <polygon class="cls-4" points="642.55 398.92 659.8 397.51 659.77 430.2 642.53 431.97 642.55 398.92"/>
      <polygon class="cls-4" points="659.8 397.51 677.04 396.09 677.02 428.43 659.77 430.2 659.8 397.51"/>
      <polygon class="cls-4" points="677.04 396.09 694.28 394.68 694.26 426.66 677.02 428.43 677.04 396.09"/>
      <polygon class="cls-4" points="694.28 394.68 711.53 393.26 711.51 424.9 694.26 426.66 694.28 394.68"/>
      <polygon class="cls-3" points="711.53 393.26 728.77 391.85 728.75 423.13 711.51 424.9 711.53 393.26"/>
      <polygon class="cls-3" points="728.77 391.85 746.01 390.43 745.99 421.36 728.75 423.13 728.77 391.85"/>
      <polygon class="cls-3" points="746.01 390.43 763.25 389.01 763.24 419.59 745.99 421.36 746.01 390.43"/>
      <polygon class="cls-3" points="763.25 389.01 780.5 387.6 780.48 417.82 763.24 419.59 763.25 389.01"/>
      <polygon class="cls-4" points="780.5 387.6 797.74 386.18 797.73 416.05 780.48 417.82 780.5 387.6"/>
      <polygon class="cls-4" points="797.74 386.18 814.98 384.77 814.97 414.28 797.73 416.05 797.74 386.18"/>
      <polygon class="cls-4" points="814.98 384.77 832.23 383.35 832.22 412.51 814.97 414.28 814.98 384.77"/>
      <polygon class="cls-3" points="832.23 383.35 849.47 381.94 849.46 410.74 832.22 412.51 832.23 383.35"/>
      <polygon class="cls-3" points="849.47 381.94 866.71 380.52 866.71 408.97 849.46 410.74 849.47 381.94"/>
      <polygon class="cls-4" points="866.71 380.52 883.96 379.11 883.95 407.2 866.71 408.97 866.71 380.52"/>
      <polygon class="cls-4" points="883.96 379.11 901.2 377.69 901.2 405.43 883.95 407.2 883.96 379.11"/>
      <polygon class="cls-4" points="901.2 377.69 918.44 376.27 918.44 403.66 901.2 405.43 901.2 377.69"/>
      <polygon class="cls-4" points="642.53 431.97 659.77 430.2 659.74 462.9 642.5 465.02 642.53 431.97"/>
      <polygon class="cls-4" points="659.77 430.2 677.02 428.43 676.99 460.78 659.74 462.9 659.77 430.2"/>
      <polygon class="cls-4" points="677.02 428.43 694.26 426.66 694.24 458.65 676.99 460.78 677.02 428.43"/>
      <polygon class="cls-4" points="694.26 426.66 711.51 424.9 711.48 456.53 694.24 458.65 694.26 426.66"/>
      <polygon class="cls-4" points="711.51 424.9 728.75 423.13 728.73 454.41 711.48 456.53 711.51 424.9"/>
      <polygon class="cls-4" points="728.75 423.13 745.99 421.36 745.98 452.28 728.73 454.41 728.75 423.13"/>
      <polygon class="cls-4" points="745.99 421.36 763.24 419.59 763.22 450.16 745.98 452.28 745.99 421.36"/>
      <polygon class="cls-4" points="763.24 419.59 780.48 417.82 780.47 448.04 763.22 450.16 763.24 419.59"/>
      <polygon class="cls-4" points="780.48 417.82 797.73 416.05 797.72 445.92 780.47 448.04 780.48 417.82"/>
      <polygon class="cls-4" points="797.73 416.05 814.97 414.28 814.96 443.79 797.72 445.92 797.73 416.05"/>
      <polygon class="cls-4" points="814.97 414.28 832.22 412.51 832.21 441.67 814.96 443.79 814.97 414.28"/>
      <polygon class="cls-4" points="832.22 412.51 849.46 410.74 849.46 439.55 832.21 441.67 832.22 412.51"/>
      <polygon class="cls-4" points="849.46 410.74 866.71 408.97 866.7 437.42 849.46 439.55 849.46 410.74"/>
      <polygon class="cls-4" points="866.71 408.97 883.95 407.2 883.95 435.3 866.7 437.42 866.71 408.97"/>
      <polygon class="cls-4" points="883.95 407.2 901.2 405.43 901.2 433.18 883.95 435.3 883.95 407.2"/>
      <polygon class="cls-4" points="901.2 405.43 918.44 403.66 918.44 431.06 901.2 433.18 901.2 405.43"/>
      <polygon class="cls-4" points="642.5 465.02 659.74 462.9 659.72 495.59 642.47 498.07 642.5 465.02"/>
      <polygon class="cls-4" points="659.74 462.9 676.99 460.78 676.97 493.12 659.72 495.59 659.74 462.9"/>
      <polygon class="cls-4" points="676.99 460.78 694.24 458.65 694.22 490.64 676.97 493.12 676.99 460.78"/>
      <polygon class="cls-4" points="694.24 458.65 711.48 456.53 711.46 488.16 694.22 490.64 694.24 458.65"/>
      <polygon class="cls-4" points="711.48 456.53 728.73 454.41 728.71 485.69 711.46 488.16 711.48 456.53"/>
      <polygon class="cls-4" points="728.73 454.41 745.98 452.28 745.96 483.21 728.71 485.69 728.73 454.41"/>
      <polygon class="cls-4" points="745.98 452.28 763.22 450.16 763.21 480.73 745.96 483.21 745.98 452.28"/>
      <polygon class="cls-4" points="763.22 450.16 780.47 448.04 780.46 478.26 763.21 480.73 763.22 450.16"/>
      <polygon class="cls-4" points="780.47 448.04 797.72 445.92 797.71 475.78 780.46 478.26 780.47 448.04"/>
      <polygon class="cls-4" points="797.72 445.92 814.96 443.79 814.95 473.31 797.71 475.78 797.72 445.92"/>
      <polygon class="cls-4" points="814.96 443.79 832.21 441.67 832.2 470.83 814.95 473.31 814.96 443.79"/>
      <polygon class="cls-4" points="832.21 441.67 849.46 439.55 849.45 468.35 832.2 470.83 832.21 441.67"/>
      <polygon class="cls-4" points="849.46 439.55 866.7 437.42 866.7 465.88 849.45 468.35 849.46 439.55"/>
      <polygon class="cls-4" points="866.7 437.42 883.95 435.3 883.95 463.4 866.7 465.88 866.7 437.42"/>
      <polygon class="cls-4" points="883.95 435.3 901.2 433.18 901.19 460.92 883.95 463.4 883.95 435.3"/>
      <polygon class="cls-4" points="901.2 433.18 918.44 431.06 918.44 458.45 901.19 460.92 901.2 433.18"/>
      <polygon class="cls-4" points="642.47 498.07 659.72 495.59 659.69 528.29 642.44 531.12 642.47 498.07"/>
      <polygon class="cls-4" points="659.72 495.59 676.97 493.12 676.94 525.46 659.69 528.29 659.72 495.59"/>
      <polygon class="cls-4" points="676.97 493.12 694.22 490.64 694.19 522.63 676.94 525.46 676.97 493.12"/>
      <polygon class="cls-4" points="694.22 490.64 711.46 488.16 711.44 519.8 694.19 522.63 694.22 490.64"/>
      <polygon class="cls-4" points="711.46 488.16 728.71 485.69 728.69 516.97 711.44 519.8 711.46 488.16"/>
      <polygon class="cls-4" points="728.71 485.69 745.96 483.21 745.94 514.14 728.69 516.97 728.71 485.69"/>
      <polygon class="cls-4" points="745.96 483.21 763.21 480.73 763.19 511.31 745.94 514.14 745.96 483.21"/>
      <polygon class="cls-4" points="763.21 480.73 780.46 478.26 780.44 508.48 763.19 511.31 763.21 480.73"/>
      <polygon class="cls-4" points="780.46 478.26 797.71 475.78 797.69 505.65 780.44 508.48 780.46 478.26"/>
      <polygon class="cls-4" points="797.71 475.78 814.95 473.31 814.94 502.82 797.69 505.65 797.71 475.78"/>
      <polygon class="cls-4" points="814.95 473.31 832.2 470.83 832.19 499.99 814.94 502.82 814.95 473.31"/>
      <polygon class="cls-4" points="832.2 470.83 849.45 468.35 849.44 497.16 832.19 499.99 832.2 470.83"/>
      <polygon class="cls-4" points="849.45 468.35 866.7 465.88 866.69 494.33 849.44 497.16 849.45 468.35"/>
      <polygon class="cls-4" points="866.7 465.88 883.95 463.4 883.94 491.5 866.69 494.33 866.7 465.88"/>
      <polygon class="cls-4" points="883.95 463.4 901.19 460.92 901.19 488.67 883.94 491.5 883.95 463.4"/>
      <polygon class="cls-4" points="901.19 460.92 918.44 458.45 918.44 485.84 901.19 488.67 901.19 460.92"/>
    </g>
  </g>
  <g>
    <polygon class="cls-5" points="320.21 0 600.25 45.88 600.25 487.54 320.21 533.48 320.21 0"/>
    <g>
      <polygon class="cls-4" points="322.67 2.34 339.89 5.17 339.87 37.86 322.64 35.39 322.67 2.34"/>
      <polygon class="cls-4" points="339.89 5.17 357.12 7.99 357.09 40.34 339.87 37.86 339.89 5.17"/>
      <polygon class="cls-4" points="357.12 7.99 374.34 10.82 374.32 42.81 357.09 40.34 357.12 7.99"/>
      <polygon class="cls-4" points="374.34 10.82 391.56 13.65 391.54 45.28 374.32 42.81 374.34 10.82"/>
      <polygon class="cls-4" points="391.56 13.65 408.78 16.48 408.76 47.76 391.54 45.28 391.56 13.65"/>
      <polygon class="cls-4" points="408.78 16.48 426.01 19.31 425.99 50.23 408.76 47.76 408.78 16.48"/>
      <polygon class="cls-4" points="426.01 19.31 443.23 22.13 443.21 52.71 425.99 50.23 426.01 19.31"/>
      <polygon class="cls-4" points="443.23 22.13 460.45 24.96 460.44 55.18 443.21 52.71 443.23 22.13"/>
      <polygon class="cls-4" points="460.45 24.96 477.67 27.79 477.66 57.66 460.44 55.18 460.45 24.96"/>
      <polygon class="cls-4" points="477.67 27.79 494.9 30.62 494.89 60.13 477.66 57.66 477.67 27.79"/>
      <polygon class="cls-4" points="494.9 30.62 512.12 33.44 512.11 62.6 494.89 60.13 494.9 30.62"/>
      <polygon class="cls-4" points="512.12 33.44 529.34 36.27 529.33 65.08 512.11 62.6 512.12 33.44"/>
      <polygon class="cls-4" points="529.34 36.27 546.56 39.1 546.56 67.55 529.33 65.08 529.34 36.27"/>
      <polygon class="cls-4" points="546.56 39.1 563.79 41.93 563.78 70.03 546.56 67.55 546.56 39.1"/>
      <polygon class="cls-4" points="563.79 41.93 581.01 44.76 581.01 72.5 563.78 70.03 563.79 41.93"/>
      <polygon class="cls-4" points="581.01 44.76 598.23 47.58 598.23 74.97 581.01 72.5 581.01 44.76"/>
      <polygon class="cls-4" points="322.64 35.39 339.87 37.86 339.84 70.56 322.62 68.44 322.64 35.39"/>
      <polygon class="cls-4" points="339.87 37.86 357.09 40.34 357.07 72.68 339.84 70.56 339.87 37.86"/>
      <polygon class="cls-4" points="357.09 40.34 374.32 42.81 374.29 74.8 357.07 72.68 357.09 40.34"/>
      <polygon class="cls-4" points="374.32 42.81 391.54 45.28 391.52 76.92 374.29 74.8 374.32 42.81"/>
      <polygon class="cls-4" points="391.54 45.28 408.76 47.76 408.75 79.04 391.52 76.92 391.54 45.28"/>
      <polygon class="cls-4" points="408.76 47.76 425.99 50.23 425.97 81.16 408.75 79.04 408.76 47.76"/>
      <polygon class="cls-4" points="425.99 50.23 443.21 52.71 443.2 83.28 425.97 81.16 425.99 50.23"/>
      <polygon class="cls-4" points="443.21 52.71 460.44 55.18 460.42 85.4 443.2 83.28 443.21 52.71"/>
      <polygon class="cls-4" points="460.44 55.18 477.66 57.66 477.65 87.52 460.42 85.4 460.44 55.18"/>
      <polygon class="cls-4" points="477.66 57.66 494.89 60.13 494.88 89.64 477.65 87.52 477.66 57.66"/>
      <polygon class="cls-4" points="494.89 60.13 512.11 62.6 512.1 91.76 494.88 89.64 494.89 60.13"/>
      <polygon class="cls-4" points="512.11 62.6 529.33 65.08 529.33 93.88 512.1 91.76 512.11 62.6"/>
      <polygon class="cls-4" points="529.33 65.08 546.56 67.55 546.55 96 529.33 93.88 529.33 65.08"/>
      <polygon class="cls-4" points="546.56 67.55 563.78 70.03 563.78 98.12 546.55 96 546.56 67.55"/>
      <polygon class="cls-4" points="563.78 70.03 581.01 72.5 581.01 100.24 563.78 98.12 563.78 70.03"/>
      <polygon class="cls-4" points="581.01 72.5 598.23 74.97 598.23 102.37 581.01 100.24 581.01 72.5"/>
      <polygon class="cls-4" points="322.62 68.44 339.84 70.56 339.82 103.25 322.59 101.49 322.62 68.44"/>
      <polygon class="cls-4" points="339.84 70.56 357.07 72.68 357.04 105.02 339.82 103.25 339.84 70.56"/>
      <polygon class="cls-4" points="357.07 72.68 374.29 74.8 374.27 106.79 357.04 105.02 357.07 72.68"/>
      <polygon class="cls-4" points="374.29 74.8 391.52 76.92 391.5 108.55 374.27 106.79 374.29 74.8"/>
      <polygon class="cls-4" points="391.52 76.92 408.75 79.04 408.73 110.32 391.5 108.55 391.52 76.92"/>
      <polygon class="cls-4" points="408.75 79.04 425.97 81.16 425.95 112.09 408.73 110.32 408.75 79.04"/>
      <polygon class="cls-4" points="425.97 81.16 443.2 83.28 443.18 113.85 425.95 112.09 425.97 81.16"/>
      <polygon class="cls-4" points="443.2 83.28 460.42 85.4 460.41 115.62 443.18 113.85 443.2 83.28"/>
      <polygon class="cls-4" points="460.42 85.4 477.65 87.52 477.64 117.39 460.41 115.62 460.42 85.4"/>
      <polygon class="cls-4" points="477.65 87.52 494.88 89.64 494.87 119.15 477.64 117.39 477.65 87.52"/>
      <polygon class="cls-4" points="494.88 89.64 512.1 91.76 512.09 120.92 494.87 119.15 494.88 89.64"/>
      <polygon class="cls-4" points="512.1 91.76 529.33 93.88 529.32 122.69 512.09 120.92 512.1 91.76"/>
      <polygon class="cls-4" points="529.33 93.88 546.55 96 546.55 124.46 529.32 122.69 529.33 93.88"/>
      <polygon class="cls-4" points="546.55 96 563.78 98.12 563.78 126.22 546.55 124.46 546.55 96"/>
      <polygon class="cls-4" points="563.78 98.12 581.01 100.24 581 127.99 563.78 126.22 563.78 98.12"/>
      <polygon class="cls-4" points="581.01 100.24 598.23 102.37 598.23 129.76 581 127.99 581.01 100.24"/>
      <polygon class="cls-4" points="322.59 101.49 339.82 103.25 339.79 135.95 322.56 134.53 322.59 101.49"/>
      <polygon class="cls-4" points="339.82 103.25 357.04 105.02 357.02 137.36 339.79 135.95 339.82 103.25"/>
      <polygon class="cls-4" points="357.04 105.02 374.27 106.79 374.25 138.77 357.02 137.36 357.04 105.02"/>
      <polygon class="cls-4" points="374.27 106.79 391.5 108.55 391.48 140.19 374.25 138.77 374.27 106.79"/>
      <polygon class="cls-4" points="391.5 108.55 408.73 110.32 408.71 141.6 391.48 140.19 391.5 108.55"/>
      <polygon class="cls-1" points="408.73 110.32 425.95 112.09 425.94 143.01 408.71 141.6 408.73 110.32"/>
      <polygon class="cls-1" points="425.95 112.09 443.18 113.85 443.17 144.43 425.94 143.01 425.95 112.09"/>
      <polygon class="cls-1" points="443.18 113.85 460.41 115.62 460.4 145.84 443.17 144.43 443.18 113.85"/>
      <polygon class="cls-1" points="460.41 115.62 477.64 117.39 477.63 147.25 460.4 145.84 460.41 115.62"/>
      <polygon class="cls-1" points="477.64 117.39 494.87 119.15 494.85 148.67 477.63 147.25 477.64 117.39"/>
      <polygon class="cls-1" points="494.87 119.15 512.09 120.92 512.08 150.08 494.85 148.67 494.87 119.15"/>
      <polygon class="cls-4" points="512.09 120.92 529.32 122.69 529.31 151.49 512.08 150.08 512.09 120.92"/>
      <polygon class="cls-4" points="529.32 122.69 546.55 124.46 546.54 152.91 529.31 151.49 529.32 122.69"/>
      <polygon class="cls-4" points="546.55 124.46 563.78 126.22 563.77 154.32 546.54 152.91 546.55 124.46"/>
      <polygon class="cls-4" points="563.78 126.22 581 127.99 581 155.73 563.77 154.32 563.78 126.22"/>
      <polygon class="cls-4" points="581 127.99 598.23 129.76 598.23 157.15 581 155.73 581 127.99"/>
      <polygon class="cls-4" points="322.56 134.53 339.79 135.95 339.76 168.64 322.53 167.58 322.56 134.53"/>
      <polygon class="cls-4" points="339.79 135.95 357.02 137.36 357 169.7 339.76 168.64 339.79 135.95"/>
      <polygon class="cls-4" points="357.02 137.36 374.25 138.77 374.23 170.76 357 169.7 357.02 137.36"/>
      <polygon class="cls-4" points="374.25 138.77 391.48 140.19 391.46 171.82 374.23 170.76 374.25 138.77"/>
      <polygon class="cls-4" points="391.48 140.19 408.71 141.6 408.69 172.88 391.46 171.82 391.48 140.19"/>
      <polygon class="cls-4" points="408.71 141.6 425.94 143.01 425.92 173.94 408.69 172.88 408.71 141.6"/>
      <polygon class="cls-4" points="425.94 143.01 443.17 144.43 443.15 175 425.92 173.94 425.94 143.01"/>
      <polygon class="cls-1" points="443.17 144.43 460.4 145.84 460.38 176.06 443.15 175 443.17 144.43"/>
      <polygon class="cls-1" points="460.4 145.84 477.63 147.25 477.61 177.12 460.38 176.06 460.4 145.84"/>
      <polygon class="cls-4" points="477.63 147.25 494.85 148.67 494.84 178.18 477.61 177.12 477.63 147.25"/>
      <polygon class="cls-4" points="494.85 148.67 512.08 150.08 512.08 179.24 494.84 178.18 494.85 148.67"/>
      <polygon class="cls-4" points="512.08 150.08 529.31 151.49 529.31 180.3 512.08 179.24 512.08 150.08"/>
      <polygon class="cls-4" points="529.31 151.49 546.54 152.91 546.54 181.36 529.31 180.3 529.31 151.49"/>
      <polygon class="cls-4" points="546.54 152.91 563.77 154.32 563.77 182.42 546.54 181.36 546.54 152.91"/>
      <polygon class="cls-4" points="563.77 154.32 581 155.73 581 183.48 563.77 182.42 563.77 154.32"/>
      <polygon class="cls-4" points="581 155.73 598.23 157.15 598.23 184.54 581 183.48 581 155.73"/>
      <polygon class="cls-4" points="322.53 167.58 339.76 168.64 339.74 201.34 322.51 200.63 322.53 167.58"/>
      <polygon class="cls-4" points="339.76 168.64 357 169.7 356.97 202.04 339.74 201.34 339.76 168.64"/>
      <polygon class="cls-4" points="357 169.7 374.23 170.76 374.2 202.75 356.97 202.04 357 169.7"/>
      <polygon class="cls-4" points="374.23 170.76 391.46 171.82 391.44 203.46 374.2 202.75 374.23 170.76"/>
      <polygon class="cls-4" points="391.46 171.82 408.69 172.88 408.67 204.16 391.44 203.46 391.46 171.82"/>
      <polygon class="cls-4" points="408.69 172.88 425.92 173.94 425.9 204.87 408.67 204.16 408.69 172.88"/>
      <polygon class="cls-4" points="425.92 173.94 443.15 175 443.14 205.57 425.9 204.87 425.92 173.94"/>
      <polygon class="cls-1" points="443.15 175 460.38 176.06 460.37 206.28 443.14 205.57 443.15 175"/>
      <polygon class="cls-1" points="460.38 176.06 477.61 177.12 477.6 206.99 460.37 206.28 460.38 176.06"/>
      <polygon class="cls-4" points="477.61 177.12 494.84 178.18 494.83 207.69 477.6 206.99 477.61 177.12"/>
      <polygon class="cls-4" points="494.84 178.18 512.08 179.24 512.07 208.4 494.83 207.69 494.84 178.18"/>
      <polygon class="cls-4" points="512.08 179.24 529.31 180.3 529.3 209.1 512.07 208.4 512.08 179.24"/>
      <polygon class="cls-4" points="529.31 180.3 546.54 181.36 546.53 209.81 529.3 209.1 529.31 180.3"/>
      <polygon class="cls-4" points="546.54 181.36 563.77 182.42 563.77 210.52 546.53 209.81 546.54 181.36"/>
      <polygon class="cls-4" points="563.77 182.42 581 183.48 581 211.22 563.77 210.52 563.77 182.42"/>
      <polygon class="cls-4" points="581 183.48 598.23 184.54 598.23 211.93 581 211.22 581 183.48"/>
      <polygon class="cls-4" points="322.51 200.63 339.74 201.34 339.71 234.03 322.48 233.68 322.51 200.63"/>
      <polygon class="cls-4" points="339.74 201.34 356.97 202.04 356.95 234.39 339.71 234.03 339.74 201.34"/>
      <polygon class="cls-4" points="356.97 202.04 374.2 202.75 374.18 234.74 356.95 234.39 356.97 202.04"/>
      <polygon class="cls-4" points="374.2 202.75 391.44 203.46 391.42 235.09 374.18 234.74 374.2 202.75"/>
      <polygon class="cls-4" points="391.44 203.46 408.67 204.16 408.65 235.44 391.42 235.09 391.44 203.46"/>
      <polygon class="cls-4" points="408.67 204.16 425.9 204.87 425.89 235.79 408.65 235.44 408.67 204.16"/>
      <polygon class="cls-4" points="425.9 204.87 443.14 205.57 443.12 236.15 425.89 235.79 425.9 204.87"/>
      <polygon class="cls-1" points="443.14 205.57 460.37 206.28 460.35 236.5 443.12 236.15 443.14 205.57"/>
      <polygon class="cls-1" points="460.37 206.28 477.6 206.99 477.59 236.85 460.35 236.5 460.37 206.28"/>
      <polygon class="cls-4" points="477.6 206.99 494.83 207.69 494.82 237.2 477.59 236.85 477.6 206.99"/>
      <polygon class="cls-4" points="494.83 207.69 512.07 208.4 512.06 237.56 494.82 237.2 494.83 207.69"/>
      <polygon class="cls-4" points="512.07 208.4 529.3 209.1 529.29 237.91 512.06 237.56 512.07 208.4"/>
      <polygon class="cls-4" points="529.3 209.1 546.53 209.81 546.53 238.26 529.29 237.91 529.3 209.1"/>
      <polygon class="cls-4" points="546.53 209.81 563.77 210.52 563.76 238.61 546.53 238.26 546.53 209.81"/>
      <polygon class="cls-4" points="563.77 210.52 581 211.22 581 238.97 563.76 238.61 563.77 210.52"/>
      <polygon class="cls-4" points="581 211.22 598.23 211.93 598.23 239.32 581 238.97 581 211.22"/>
      <polygon class="cls-4" points="322.48 233.68 339.71 234.03 339.69 266.73 322.45 266.73 322.48 233.68"/>
      <polygon class="cls-4" points="339.71 234.03 356.95 234.39 356.92 266.73 339.69 266.73 339.71 234.03"/>
      <polygon class="cls-4" points="356.95 234.39 374.18 234.74 374.16 266.73 356.92 266.73 356.95 234.39"/>
      <polygon class="cls-4" points="374.18 234.74 391.42 235.09 391.4 266.72 374.16 266.73 374.18 234.74"/>
      <polygon class="cls-4" points="391.42 235.09 408.65 235.44 408.63 266.72 391.4 266.72 391.42 235.09"/>
      <polygon class="cls-4" points="408.65 235.44 425.89 235.79 425.87 266.72 408.63 266.72 408.65 235.44"/>
      <polygon class="cls-4" points="425.89 235.79 443.12 236.15 443.1 266.72 425.87 266.72 425.89 235.79"/>
      <polygon class="cls-1" points="443.12 236.15 460.35 236.5 460.34 266.72 443.1 266.72 443.12 236.15"/>
      <polygon class="cls-1" points="460.35 236.5 477.59 236.85 477.58 266.72 460.34 266.72 460.35 236.5"/>
      <polygon class="cls-4" points="477.59 236.85 494.82 237.2 494.81 266.72 477.58 266.72 477.59 236.85"/>
      <polygon class="cls-4" points="494.82 237.2 512.06 237.56 512.05 266.72 494.81 266.72 494.82 237.2"/>
      <polygon class="cls-4" points="512.06 237.56 529.29 237.91 529.29 266.72 512.05 266.72 512.06 237.56"/>
      <polygon class="cls-4" points="529.29 237.91 546.53 238.26 546.52 266.71 529.29 266.72 529.29 237.91"/>
      <polygon class="cls-4" points="546.53 238.26 563.76 238.61 563.76 266.71 546.52 266.71 546.53 238.26"/>
      <polygon class="cls-4" points="563.76 238.61 581 238.97 580.99 266.71 563.76 266.71 563.76 238.61"/>
      <polygon class="cls-4" points="581 238.97 598.23 239.32 598.23 266.71 580.99 266.71 581 238.97"/>
      <polygon class="cls-4" points="322.45 266.73 339.69 266.73 339.66 299.42 322.42 299.78 322.45 266.73"/>
      <polygon class="cls-4" points="339.69 266.73 356.92 266.73 356.9 299.07 339.66 299.42 339.69 266.73"/>
      <polygon class="cls-4" points="356.92 266.73 374.16 266.73 374.14 298.71 356.9 299.07 356.92 266.73"/>
      <polygon class="cls-4" points="374.16 266.73 391.4 266.72 391.38 298.36 374.14 298.71 374.16 266.73"/>
      <polygon class="cls-4" points="391.4 266.72 408.63 266.72 408.61 298 391.38 298.36 391.4 266.72"/>
      <polygon class="cls-4" points="408.63 266.72 425.87 266.72 425.85 297.65 408.61 298 408.63 266.72"/>
      <polygon class="cls-4" points="425.87 266.72 443.1 266.72 443.09 297.29 425.85 297.65 425.87 266.72"/>
      <polygon class="cls-1" points="443.1 266.72 460.34 266.72 460.33 296.94 443.09 297.29 443.1 266.72"/>
      <polygon class="cls-1" points="460.34 266.72 477.58 266.72 477.57 296.58 460.33 296.94 460.34 266.72"/>
      <polygon class="cls-4" points="477.58 266.72 494.81 266.72 494.8 296.23 477.57 296.58 477.58 266.72"/>
      <polygon class="cls-4" points="494.81 266.72 512.05 266.72 512.04 295.88 494.8 296.23 494.81 266.72"/>
      <polygon class="cls-4" points="512.05 266.72 529.29 266.72 529.28 295.52 512.04 295.88 512.05 266.72"/>
      <polygon class="cls-4" points="529.29 266.72 546.52 266.71 546.52 295.17 529.28 295.52 529.29 266.72"/>
      <polygon class="cls-4" points="546.52 266.71 563.76 266.71 563.76 294.81 546.52 295.17 546.52 266.71"/>
      <polygon class="cls-4" points="563.76 266.71 580.99 266.71 580.99 294.46 563.76 294.81 563.76 266.71"/>
      <polygon class="cls-4" points="580.99 266.71 598.23 266.71 598.23 294.1 580.99 294.46 580.99 266.71"/>
      <polygon class="cls-4" points="322.42 299.78 339.66 299.42 339.64 332.12 322.4 332.83 322.42 299.78"/>
      <polygon class="cls-4" points="339.66 299.42 356.9 299.07 356.88 331.41 339.64 332.12 339.66 299.42"/>
      <polygon class="cls-4" points="356.9 299.07 374.14 298.71 374.12 330.7 356.88 331.41 356.9 299.07"/>
      <polygon class="cls-4" points="374.14 298.71 391.38 298.36 391.35 329.99 374.12 330.7 374.14 298.71"/>
      <polygon class="cls-4" points="391.38 298.36 408.61 298 408.59 329.28 391.35 329.99 391.38 298.36"/>
      <polygon class="cls-4" points="408.61 298 425.85 297.65 425.83 328.58 408.59 329.28 408.61 298"/>
      <polygon class="cls-4" points="425.85 297.65 443.09 297.29 443.07 327.87 425.83 328.58 425.85 297.65"/>
      <polygon class="cls-1" points="443.09 297.29 460.33 296.94 460.31 327.16 443.07 327.87 443.09 297.29"/>
      <polygon class="cls-1" points="460.33 296.94 477.57 296.58 477.55 326.45 460.31 327.16 460.33 296.94"/>
      <polygon class="cls-4" points="477.57 296.58 494.8 296.23 494.79 325.74 477.55 326.45 477.57 296.58"/>
      <polygon class="cls-4" points="494.8 296.23 512.04 295.88 512.03 325.03 494.79 325.74 494.8 296.23"/>
      <polygon class="cls-4" points="512.04 295.88 529.28 295.52 529.27 324.33 512.03 325.03 512.04 295.88"/>
      <polygon class="cls-4" points="529.28 295.52 546.52 295.17 546.51 323.62 529.27 324.33 529.28 295.52"/>
      <polygon class="cls-4" points="546.52 295.17 563.76 294.81 563.75 322.91 546.51 323.62 546.52 295.17"/>
      <polygon class="cls-4" points="563.76 294.81 580.99 294.46 580.99 322.2 563.75 322.91 563.76 294.81"/>
      <polygon class="cls-4" points="580.99 294.46 598.23 294.1 598.23 321.49 580.99 322.2 580.99 294.46"/>
      <polygon class="cls-4" points="322.4 332.83 339.64 332.12 339.61 364.81 322.37 365.87 322.4 332.83"/>
      <polygon class="cls-4" points="339.64 332.12 356.88 331.41 356.85 363.75 339.61 364.81 339.64 332.12"/>
      <polygon class="cls-4" points="356.88 331.41 374.12 330.7 374.09 362.69 356.85 363.75 356.88 331.41"/>
      <polygon class="cls-4" points="374.12 330.7 391.35 329.99 391.33 361.63 374.09 362.69 374.12 330.7"/>
      <polygon class="cls-4" points="391.35 329.99 408.59 329.28 408.58 360.56 391.33 361.63 391.35 329.99"/>
      <polygon class="cls-4" points="408.59 329.28 425.83 328.58 425.82 359.5 408.58 360.56 408.59 329.28"/>
      <polygon class="cls-4" points="425.83 328.58 443.07 327.87 443.06 358.44 425.82 359.5 425.83 328.58"/>
      <polygon class="cls-1" points="443.07 327.87 460.31 327.16 460.3 357.38 443.06 358.44 443.07 327.87"/>
      <polygon class="cls-1" points="460.31 327.16 477.55 326.45 477.54 356.32 460.3 357.38 460.31 327.16"/>
      <polygon class="cls-4" points="477.55 326.45 494.79 325.74 494.78 355.25 477.54 356.32 477.55 326.45"/>
      <polygon class="cls-4" points="494.79 325.74 512.03 325.03 512.02 354.19 494.78 355.25 494.79 325.74"/>
      <polygon class="cls-4" points="512.03 325.03 529.27 324.33 529.27 353.13 512.02 354.19 512.03 325.03"/>
      <polygon class="cls-4" points="529.27 324.33 546.51 323.62 546.51 352.07 529.27 353.13 529.27 324.33"/>
      <polygon class="cls-4" points="546.51 323.62 563.75 322.91 563.75 351.01 546.51 352.07 546.51 323.62"/>
      <polygon class="cls-4" points="563.75 322.91 580.99 322.2 580.99 349.95 563.75 351.01 563.75 322.91"/>
      <polygon class="cls-4" points="580.99 322.2 598.23 321.49 598.23 348.88 580.99 349.95 580.99 322.2"/>
      <polygon class="cls-4" points="322.37 365.87 339.61 364.81 339.58 397.51 322.34 398.92 322.37 365.87"/>
      <polygon class="cls-4" points="339.61 364.81 356.85 363.75 356.83 396.09 339.58 397.51 339.61 364.81"/>
      <polygon class="cls-4" points="356.85 363.75 374.09 362.69 374.07 394.68 356.83 396.09 356.85 363.75"/>
      <polygon class="cls-4" points="374.09 362.69 391.33 361.63 391.31 393.26 374.07 394.68 374.09 362.69"/>
      <polygon class="cls-4" points="391.33 361.63 408.58 360.56 408.56 391.85 391.31 393.26 391.33 361.63"/>
      <polygon class="cls-4" points="408.58 360.56 425.82 359.5 425.8 390.43 408.56 391.85 408.58 360.56"/>
      <polygon class="cls-4" points="425.82 359.5 443.06 358.44 443.04 389.01 425.8 390.43 425.82 359.5"/>
      <polygon class="cls-1" points="443.06 358.44 460.3 357.38 460.29 387.6 443.04 389.01 443.06 358.44"/>
      <polygon class="cls-1" points="460.3 357.38 477.54 356.32 477.53 386.18 460.29 387.6 460.3 357.38"/>
      <polygon class="cls-4" points="477.54 356.32 494.78 355.25 494.77 384.77 477.53 386.18 477.54 356.32"/>
      <polygon class="cls-4" points="494.78 355.25 512.02 354.19 512.02 383.35 494.77 384.77 494.78 355.25"/>
      <polygon class="cls-4" points="512.02 354.19 529.27 353.13 529.26 381.94 512.02 383.35 512.02 354.19"/>
      <polygon class="cls-4" points="529.27 353.13 546.51 352.07 546.5 380.52 529.26 381.94 529.27 353.13"/>
      <polygon class="cls-4" points="546.51 352.07 563.75 351.01 563.74 379.11 546.5 380.52 546.51 352.07"/>
      <polygon class="cls-4" points="563.75 351.01 580.99 349.95 580.99 377.69 563.74 379.11 563.75 351.01"/>
      <polygon class="cls-4" points="580.99 349.95 598.23 348.88 598.23 376.27 580.99 377.69 580.99 349.95"/>
      <polygon class="cls-4" points="322.34 398.92 339.58 397.51 339.56 430.2 322.31 431.97 322.34 398.92"/>
      <polygon class="cls-4" points="339.58 397.51 356.83 396.09 356.8 428.43 339.56 430.2 339.58 397.51"/>
      <polygon class="cls-4" points="356.83 396.09 374.07 394.68 374.05 426.66 356.8 428.43 356.83 396.09"/>
      <polygon class="cls-4" points="374.07 394.68 391.31 393.26 391.29 424.9 374.05 426.66 374.07 394.68"/>
      <polygon class="cls-4" points="391.31 393.26 408.56 391.85 408.54 423.13 391.29 424.9 391.31 393.26"/>
      <polygon class="cls-1" points="408.56 391.85 425.8 390.43 425.78 421.36 408.54 423.13 408.56 391.85"/>
      <polygon class="cls-1" points="425.8 390.43 443.04 389.01 443.03 419.59 425.78 421.36 425.8 390.43"/>
      <polygon class="cls-1" points="443.04 389.01 460.29 387.6 460.27 417.82 443.03 419.59 443.04 389.01"/>
      <polygon class="cls-1" points="460.29 387.6 477.53 386.18 477.52 416.05 460.27 417.82 460.29 387.6"/>
      <polygon class="cls-1" points="477.53 386.18 494.77 384.77 494.76 414.28 477.52 416.05 477.53 386.18"/>
      <polygon class="cls-1" points="494.77 384.77 512.02 383.35 512.01 412.51 494.76 414.28 494.77 384.77"/>
      <polygon class="cls-4" points="512.02 383.35 529.26 381.94 529.25 410.74 512.01 412.51 512.02 383.35"/>
      <polygon class="cls-4" points="529.26 381.94 546.5 380.52 546.5 408.97 529.25 410.74 529.26 381.94"/>
      <polygon class="cls-4" points="546.5 380.52 563.74 379.11 563.74 407.2 546.5 408.97 546.5 380.52"/>
      <polygon class="cls-4" points="563.74 379.11 580.99 377.69 580.99 405.43 563.74 407.2 563.74 379.11"/>
      <polygon class="cls-4" points="580.99 377.69 598.23 376.27 598.23 403.66 580.99 405.43 580.99 377.69"/>
      <polygon class="cls-4" points="322.31 431.97 339.56 430.2 339.53 462.9 322.29 465.02 322.31 431.97"/>
      <polygon class="cls-4" points="339.56 430.2 356.8 428.43 356.78 460.78 339.53 462.9 339.56 430.2"/>
      <polygon class="cls-4" points="356.8 428.43 374.05 426.66 374.03 458.65 356.78 460.78 356.8 428.43"/>
      <polygon class="cls-4" points="374.05 426.66 391.29 424.9 391.27 456.53 374.03 458.65 374.05 426.66"/>
      <polygon class="cls-4" points="391.29 424.9 408.54 423.13 408.52 454.41 391.27 456.53 391.29 424.9"/>
      <polygon class="cls-4" points="408.54 423.13 425.78 421.36 425.77 452.28 408.52 454.41 408.54 423.13"/>
      <polygon class="cls-4" points="425.78 421.36 443.03 419.59 443.01 450.16 425.77 452.28 425.78 421.36"/>
      <polygon class="cls-4" points="443.03 419.59 460.27 417.82 460.26 448.04 443.01 450.16 443.03 419.59"/>
      <polygon class="cls-4" points="460.27 417.82 477.52 416.05 477.51 445.92 460.26 448.04 460.27 417.82"/>
      <polygon class="cls-4" points="477.52 416.05 494.76 414.28 494.75 443.79 477.51 445.92 477.52 416.05"/>
      <polygon class="cls-4" points="494.76 414.28 512.01 412.51 512 441.67 494.75 443.79 494.76 414.28"/>
      <polygon class="cls-4" points="512.01 412.51 529.25 410.74 529.24 439.55 512 441.67 512.01 412.51"/>
      <polygon class="cls-4" points="529.25 410.74 546.5 408.97 546.49 437.42 529.24 439.55 529.25 410.74"/>
      <polygon class="cls-4" points="546.5 408.97 563.74 407.2 563.74 435.3 546.49 437.42 546.5 408.97"/>
      <polygon class="cls-4" points="563.74 407.2 580.99 405.43 580.98 433.18 563.74 435.3 563.74 407.2"/>
      <polygon class="cls-4" points="580.99 405.43 598.23 403.66 598.23 431.06 580.98 433.18 580.99 405.43"/>
      <polygon class="cls-4" points="322.29 465.02 339.53 462.9 339.51 495.59 322.26 498.07 322.29 465.02"/>
      <polygon class="cls-4" points="339.53 462.9 356.78 460.78 356.76 493.12 339.51 495.59 339.53 462.9"/>
      <polygon class="cls-4" points="356.78 460.78 374.03 458.65 374 490.64 356.76 493.12 356.78 460.78"/>
      <polygon class="cls-4" points="374.03 458.65 391.27 456.53 391.25 488.16 374 490.64 374.03 458.65"/>
      <polygon class="cls-4" points="391.27 456.53 408.52 454.41 408.5 485.69 391.25 488.16 391.27 456.53"/>
      <polygon class="cls-4" points="408.52 454.41 425.77 452.28 425.75 483.21 408.5 485.69 408.52 454.41"/>
      <polygon class="cls-4" points="425.77 452.28 443.01 450.16 443 480.73 425.75 483.21 425.77 452.28"/>
      <polygon class="cls-4" points="443.01 450.16 460.26 448.04 460.24 478.26 443 480.73 443.01 450.16"/>
      <polygon class="cls-4" points="460.26 448.04 477.51 445.92 477.49 475.78 460.24 478.26 460.26 448.04"/>
      <polygon class="cls-4" points="477.51 445.92 494.75 443.79 494.74 473.31 477.49 475.78 477.51 445.92"/>
      <polygon class="cls-4" points="494.75 443.79 512 441.67 511.99 470.83 494.74 473.31 494.75 443.79"/>
      <polygon class="cls-4" points="512 441.67 529.24 439.55 529.24 468.35 511.99 470.83 512 441.67"/>
      <polygon class="cls-4" points="529.24 439.55 546.49 437.42 546.49 465.88 529.24 468.35 529.24 439.55"/>
      <polygon class="cls-4" points="546.49 437.42 563.74 435.3 563.73 463.4 546.49 465.88 546.49 437.42"/>
      <polygon class="cls-4" points="563.74 435.3 580.98 433.18 580.98 460.92 563.73 463.4 563.74 435.3"/>
      <polygon class="cls-4" points="580.98 433.18 598.23 431.06 598.23 458.45 580.98 460.92 580.98 433.18"/>
      <polygon class="cls-4" points="322.26 498.07 339.51 495.59 339.48 528.29 322.23 531.12 322.26 498.07"/>
      <polygon class="cls-4" points="339.51 495.59 356.76 493.12 356.73 525.46 339.48 528.29 339.51 495.59"/>
      <polygon class="cls-4" points="356.76 493.12 374 490.64 373.98 522.63 356.73 525.46 356.76 493.12"/>
      <polygon class="cls-4" points="374 490.64 391.25 488.16 391.23 519.8 373.98 522.63 374 490.64"/>
      <polygon class="cls-4" points="391.25 488.16 408.5 485.69 408.48 516.97 391.23 519.8 391.25 488.16"/>
      <polygon class="cls-4" points="408.5 485.69 425.75 483.21 425.73 514.14 408.48 516.97 408.5 485.69"/>
      <polygon class="cls-4" points="425.75 483.21 443 480.73 442.98 511.31 425.73 514.14 425.75 483.21"/>
      <polygon class="cls-4" points="443 480.73 460.24 478.26 460.23 508.48 442.98 511.31 443 480.73"/>
      <polygon class="cls-4" points="460.24 478.26 477.49 475.78 477.48 505.65 460.23 508.48 460.24 478.26"/>
      <polygon class="cls-4" points="477.49 475.78 494.74 473.31 494.73 502.82 477.48 505.65 477.49 475.78"/>
      <polygon class="cls-4" points="494.74 473.31 511.99 470.83 511.98 499.99 494.73 502.82 494.74 473.31"/>
      <polygon class="cls-4" points="511.99 470.83 529.24 468.35 529.23 497.16 511.98 499.99 511.99 470.83"/>
      <polygon class="cls-4" points="529.24 468.35 546.49 465.88 546.48 494.33 529.23 497.16 529.24 468.35"/>
      <polygon class="cls-4" points="546.49 465.88 563.73 463.4 563.73 491.5 546.48 494.33 546.49 465.88"/>
      <polygon class="cls-4" points="563.73 463.4 580.98 460.92 580.98 488.67 563.73 491.5 563.73 463.4"/>
      <polygon class="cls-4" points="580.98 460.92 598.23 458.45 598.23 485.84 580.98 488.67 580.98 460.92"/>
    </g>
  </g>
  <g>
    <polygon class="cls-5" points="0 0 280.04 45.88 280.04 487.54 0 533.48 0 0"/>
    <g>
      <polygon class="cls-4" points="2.46 2.34 19.68 5.17 19.66 37.86 2.43 35.39 2.46 2.34"/>
      <polygon class="cls-4" points="19.68 5.17 36.9 7.99 36.88 40.34 19.66 37.86 19.68 5.17"/>
      <polygon class="cls-4" points="36.9 7.99 54.13 10.82 54.1 42.81 36.88 40.34 36.9 7.99"/>
      <polygon class="cls-4" points="54.13 10.82 71.35 13.65 71.33 45.28 54.1 42.81 54.13 10.82"/>
      <polygon class="cls-4" points="71.35 13.65 88.57 16.48 88.55 47.76 71.33 45.28 71.35 13.65"/>
      <polygon class="cls-4" points="88.57 16.48 105.79 19.31 105.78 50.23 88.55 47.76 88.57 16.48"/>
      <polygon class="cls-4" points="105.79 19.31 123.02 22.13 123 52.71 105.78 50.23 105.79 19.31"/>
      <polygon class="cls-4" points="123.02 22.13 140.24 24.96 140.23 55.18 123 52.71 123.02 22.13"/>
      <polygon class="cls-4" points="140.24 24.96 157.46 27.79 157.45 57.66 140.23 55.18 140.24 24.96"/>
      <polygon class="cls-4" points="157.46 27.79 174.68 30.62 174.67 60.13 157.45 57.66 157.46 27.79"/>
      <polygon class="cls-4" points="174.68 30.62 191.91 33.44 191.9 62.6 174.67 60.13 174.68 30.62"/>
      <polygon class="cls-4" points="191.91 33.44 209.13 36.27 209.12 65.08 191.9 62.6 191.91 33.44"/>
      <polygon class="cls-4" points="209.13 36.27 226.35 39.1 226.35 67.55 209.12 65.08 209.13 36.27"/>
      <polygon class="cls-4" points="226.35 39.1 243.57 41.93 243.57 70.03 226.35 67.55 226.35 39.1"/>
      <polygon class="cls-4" points="243.57 41.93 260.8 44.76 260.79 72.5 243.57 70.03 243.57 41.93"/>
      <polygon class="cls-4" points="260.8 44.76 278.02 47.58 278.02 74.97 260.79 72.5 260.8 44.76"/>
      <polygon class="cls-4" points="2.43 35.39 19.66 37.86 19.63 70.56 2.4 68.44 2.43 35.39"/>
      <polygon class="cls-4" points="19.66 37.86 36.88 40.34 36.86 72.68 19.63 70.56 19.66 37.86"/>
      <polygon class="cls-4" points="36.88 40.34 54.1 42.81 54.08 74.8 36.86 72.68 36.88 40.34"/>
      <polygon class="cls-4" points="54.1 42.81 71.33 45.28 71.31 76.92 54.08 74.8 54.1 42.81"/>
      <polygon class="cls-4" points="71.33 45.28 88.55 47.76 88.53 79.04 71.31 76.92 71.33 45.28"/>
      <polygon class="cls-4" points="88.55 47.76 105.78 50.23 105.76 81.16 88.53 79.04 88.55 47.76"/>
      <polygon class="cls-4" points="105.78 50.23 123 52.71 122.99 83.28 105.76 81.16 105.78 50.23"/>
      <polygon class="cls-4" points="123 52.71 140.23 55.18 140.21 85.4 122.99 83.28 123 52.71"/>
      <polygon class="cls-4" points="140.23 55.18 157.45 57.66 157.44 87.52 140.21 85.4 140.23 55.18"/>
      <polygon class="cls-4" points="157.45 57.66 174.67 60.13 174.66 89.64 157.44 87.52 157.45 57.66"/>
      <polygon class="cls-4" points="174.67 60.13 191.9 62.6 191.89 91.76 174.66 89.64 174.67 60.13"/>
      <polygon class="cls-4" points="191.9 62.6 209.12 65.08 209.12 93.88 191.89 91.76 191.9 62.6"/>
      <polygon class="cls-4" points="209.12 65.08 226.35 67.55 226.34 96 209.12 93.88 209.12 65.08"/>
      <polygon class="cls-4" points="226.35 67.55 243.57 70.03 243.57 98.12 226.34 96 226.35 67.55"/>
      <polygon class="cls-4" points="243.57 70.03 260.79 72.5 260.79 100.24 243.57 98.12 243.57 70.03"/>
      <polygon class="cls-4" points="260.79 72.5 278.02 74.97 278.02 102.37 260.79 100.24 260.79 72.5"/>
      <polygon class="cls-4" points="2.4 68.44 19.63 70.56 19.6 103.25 2.38 101.49 2.4 68.44"/>
      <polygon class="cls-4" points="19.63 70.56 36.86 72.68 36.83 105.02 19.6 103.25 19.63 70.56"/>
      <polygon class="cls-4" points="36.86 72.68 54.08 74.8 54.06 106.79 36.83 105.02 36.86 72.68"/>
      <polygon class="cls-4" points="54.08 74.8 71.31 76.92 71.29 108.55 54.06 106.79 54.08 74.8"/>
      <polygon class="cls-4" points="71.31 76.92 88.53 79.04 88.51 110.32 71.29 108.55 71.31 76.92"/>
      <polygon class="cls-4" points="88.53 79.04 105.76 81.16 105.74 112.09 88.51 110.32 88.53 79.04"/>
      <polygon class="cls-4" points="105.76 81.16 122.99 83.28 122.97 113.85 105.74 112.09 105.76 81.16"/>
      <polygon class="cls-4" points="122.99 83.28 140.21 85.4 140.2 115.62 122.97 113.85 122.99 83.28"/>
      <polygon class="cls-4" points="140.21 85.4 157.44 87.52 157.43 117.39 140.2 115.62 140.21 85.4"/>
      <polygon class="cls-4" points="157.44 87.52 174.66 89.64 174.65 119.15 157.43 117.39 157.44 87.52"/>
      <polygon class="cls-4" points="174.66 89.64 191.89 91.76 191.88 120.92 174.65 119.15 174.66 89.64"/>
      <polygon class="cls-4" points="191.89 91.76 209.12 93.88 209.11 122.69 191.88 120.92 191.89 91.76"/>
      <polygon class="cls-4" points="209.12 93.88 226.34 96 226.34 124.46 209.11 122.69 209.12 93.88"/>
      <polygon class="cls-4" points="226.34 96 243.57 98.12 243.56 126.22 226.34 124.46 226.34 96"/>
      <polygon class="cls-4" points="243.57 98.12 260.79 100.24 260.79 127.99 243.56 126.22 243.57 98.12"/>
      <polygon class="cls-4" points="260.79 100.24 278.02 102.37 278.02 129.76 260.79 127.99 260.79 100.24"/>
      <polygon class="cls-4" points="2.38 101.49 19.6 103.25 19.58 135.95 2.35 134.53 2.38 101.49"/>
      <polygon class="cls-4" points="19.6 103.25 36.83 105.02 36.81 137.36 19.58 135.95 19.6 103.25"/>
      <polygon class="cls-4" points="36.83 105.02 54.06 106.79 54.04 138.77 36.81 137.36 36.83 105.02"/>
      <polygon class="cls-4" points="54.06 106.79 71.29 108.55 71.27 140.19 54.04 138.77 54.06 106.79"/>
      <polygon class="cls-2" points="71.29 108.55 88.51 110.32 88.5 141.6 71.27 140.19 71.29 108.55"/>
      <polygon class="cls-2" points="88.51 110.32 105.74 112.09 105.73 143.01 88.5 141.6 88.51 110.32"/>
      <polygon class="cls-2" points="105.74 112.09 122.97 113.85 122.95 144.43 105.73 143.01 105.74 112.09"/>
      <polygon class="cls-2" points="122.97 113.85 140.2 115.62 140.18 145.84 122.95 144.43 122.97 113.85"/>
      <polygon class="cls-2" points="140.2 115.62 157.43 117.39 157.41 147.25 140.18 145.84 140.2 115.62"/>
      <polygon class="cls-2" points="157.43 117.39 174.65 119.15 174.64 148.67 157.41 147.25 157.43 117.39"/>
      <polygon class="cls-2" points="174.65 119.15 191.88 120.92 191.87 150.08 174.64 148.67 174.65 119.15"/>
      <polygon class="cls-4" points="191.88 120.92 209.11 122.69 209.1 151.49 191.87 150.08 191.88 120.92"/>
      <polygon class="cls-4" points="209.11 122.69 226.34 124.46 226.33 152.91 209.1 151.49 209.11 122.69"/>
      <polygon class="cls-4" points="226.34 124.46 243.56 126.22 243.56 154.32 226.33 152.91 226.34 124.46"/>
      <polygon class="cls-4" points="243.56 126.22 260.79 127.99 260.79 155.73 243.56 154.32 243.56 126.22"/>
      <polygon class="cls-4" points="260.79 127.99 278.02 129.76 278.02 157.15 260.79 155.73 260.79 127.99"/>
      <polygon class="cls-4" points="2.35 134.53 19.58 135.95 19.55 168.64 2.32 167.58 2.35 134.53"/>
      <polygon class="cls-4" points="19.58 135.95 36.81 137.36 36.78 169.7 19.55 168.64 19.58 135.95"/>
      <polygon class="cls-4" points="36.81 137.36 54.04 138.77 54.01 170.76 36.78 169.7 36.81 137.36"/>
      <polygon class="cls-4" points="54.04 138.77 71.27 140.19 71.25 171.82 54.01 170.76 54.04 138.77"/>
      <polygon class="cls-2" points="71.27 140.19 88.5 141.6 88.48 172.88 71.25 171.82 71.27 140.19"/>
      <polygon class="cls-4" points="88.5 141.6 105.73 143.01 105.71 173.94 88.48 172.88 88.5 141.6"/>
      <polygon class="cls-4" points="105.73 143.01 122.95 144.43 122.94 175 105.71 173.94 105.73 143.01"/>
      <polygon class="cls-4" points="122.95 144.43 140.18 145.84 140.17 176.06 122.94 175 122.95 144.43"/>
      <polygon class="cls-4" points="140.18 145.84 157.41 147.25 157.4 177.12 140.17 176.06 140.18 145.84"/>
      <polygon class="cls-4" points="157.41 147.25 174.64 148.67 174.63 178.18 157.4 177.12 157.41 147.25"/>
      <polygon class="cls-4" points="174.64 148.67 191.87 150.08 191.86 179.24 174.63 178.18 174.64 148.67"/>
      <polygon class="cls-2" points="191.87 150.08 209.1 151.49 209.09 180.3 191.86 179.24 191.87 150.08"/>
      <polygon class="cls-4" points="209.1 151.49 226.33 152.91 226.33 181.36 209.09 180.3 209.1 151.49"/>
      <polygon class="cls-4" points="226.33 152.91 243.56 154.32 243.56 182.42 226.33 181.36 226.33 152.91"/>
      <polygon class="cls-4" points="243.56 154.32 260.79 155.73 260.79 183.48 243.56 182.42 243.56 154.32"/>
      <polygon class="cls-4" points="260.79 155.73 278.02 157.15 278.02 184.54 260.79 183.48 260.79 155.73"/>
      <polygon class="cls-4" points="2.32 167.58 19.55 168.64 19.53 201.34 2.29 200.63 2.32 167.58"/>
      <polygon class="cls-4" points="19.55 168.64 36.78 169.7 36.76 202.04 19.53 201.34 19.55 168.64"/>
      <polygon class="cls-4" points="36.78 169.7 54.01 170.76 53.99 202.75 36.76 202.04 36.78 169.7"/>
      <polygon class="cls-4" points="54.01 170.76 71.25 171.82 71.23 203.46 53.99 202.75 54.01 170.76"/>
      <polygon class="cls-2" points="71.25 171.82 88.48 172.88 88.46 204.16 71.23 203.46 71.25 171.82"/>
      <polygon class="cls-4" points="88.48 172.88 105.71 173.94 105.69 204.87 88.46 204.16 88.48 172.88"/>
      <polygon class="cls-4" points="105.71 173.94 122.94 175 122.92 205.57 105.69 204.87 105.71 173.94"/>
      <polygon class="cls-4" points="122.94 175 140.17 176.06 140.16 206.28 122.92 205.57 122.94 175"/>
      <polygon class="cls-4" points="140.17 176.06 157.4 177.12 157.39 206.99 140.16 206.28 140.17 176.06"/>
      <polygon class="cls-4" points="157.4 177.12 174.63 178.18 174.62 207.69 157.39 206.99 157.4 177.12"/>
      <polygon class="cls-4" points="174.63 178.18 191.86 179.24 191.85 208.4 174.62 207.69 174.63 178.18"/>
      <polygon class="cls-2" points="191.86 179.24 209.09 180.3 209.09 209.1 191.85 208.4 191.86 179.24"/>
      <polygon class="cls-4" points="209.09 180.3 226.33 181.36 226.32 209.81 209.09 209.1 209.09 180.3"/>
      <polygon class="cls-4" points="226.33 181.36 243.56 182.42 243.55 210.52 226.32 209.81 226.33 181.36"/>
      <polygon class="cls-4" points="243.56 182.42 260.79 183.48 260.79 211.22 243.55 210.52 243.56 182.42"/>
      <polygon class="cls-4" points="260.79 183.48 278.02 184.54 278.02 211.93 260.79 211.22 260.79 183.48"/>
      <polygon class="cls-4" points="2.29 200.63 19.53 201.34 19.5 234.03 2.27 233.68 2.29 200.63"/>
      <polygon class="cls-4" points="19.53 201.34 36.76 202.04 36.74 234.39 19.5 234.03 19.53 201.34"/>
      <polygon class="cls-4" points="36.76 202.04 53.99 202.75 53.97 234.74 36.74 234.39 36.76 202.04"/>
      <polygon class="cls-4" points="53.99 202.75 71.23 203.46 71.2 235.09 53.97 234.74 53.99 202.75"/>
      <polygon class="cls-2" points="71.23 203.46 88.46 204.16 88.44 235.44 71.2 235.09 71.23 203.46"/>
      <polygon class="cls-4" points="88.46 204.16 105.69 204.87 105.67 235.79 88.44 235.44 88.46 204.16"/>
      <polygon class="cls-4" points="105.69 204.87 122.92 205.57 122.91 236.15 105.67 235.79 105.69 204.87"/>
      <polygon class="cls-4" points="122.92 205.57 140.16 206.28 140.14 236.5 122.91 236.15 122.92 205.57"/>
      <polygon class="cls-4" points="140.16 206.28 157.39 206.99 157.38 236.85 140.14 236.5 140.16 206.28"/>
      <polygon class="cls-4" points="157.39 206.99 174.62 207.69 174.61 237.2 157.38 236.85 157.39 206.99"/>
      <polygon class="cls-4" points="174.62 207.69 191.85 208.4 191.85 237.56 174.61 237.2 174.62 207.69"/>
      <polygon class="cls-2" points="191.85 208.4 209.09 209.1 209.08 237.91 191.85 237.56 191.85 208.4"/>
      <polygon class="cls-4" points="209.09 209.1 226.32 209.81 226.32 238.26 209.08 237.91 209.09 209.1"/>
      <polygon class="cls-4" points="226.32 209.81 243.55 210.52 243.55 238.61 226.32 238.26 226.32 209.81"/>
      <polygon class="cls-4" points="243.55 210.52 260.79 211.22 260.78 238.97 243.55 238.61 243.55 210.52"/>
      <polygon class="cls-4" points="260.79 211.22 278.02 211.93 278.02 239.32 260.78 238.97 260.79 211.22"/>
      <polygon class="cls-4" points="2.27 233.68 19.5 234.03 19.48 266.73 2.24 266.73 2.27 233.68"/>
      <polygon class="cls-4" points="19.5 234.03 36.74 234.39 36.71 266.73 19.48 266.73 19.5 234.03"/>
      <polygon class="cls-4" points="36.74 234.39 53.97 234.74 53.95 266.73 36.71 266.73 36.74 234.39"/>
      <polygon class="cls-4" points="53.97 234.74 71.2 235.09 71.18 266.72 53.95 266.73 53.97 234.74"/>
      <polygon class="cls-2" points="71.2 235.09 88.44 235.44 88.42 266.72 71.18 266.72 71.2 235.09"/>
      <polygon class="cls-2" points="88.44 235.44 105.67 235.79 105.66 266.72 88.42 266.72 88.44 235.44"/>
      <polygon class="cls-2" points="105.67 235.79 122.91 236.15 122.89 266.72 105.66 266.72 105.67 235.79"/>
      <polygon class="cls-2" points="122.91 236.15 140.14 236.5 140.13 266.72 122.89 266.72 122.91 236.15"/>
      <polygon class="cls-2" points="140.14 236.5 157.38 236.85 157.37 266.72 140.13 266.72 140.14 236.5"/>
      <polygon class="cls-2" points="157.38 236.85 174.61 237.2 174.6 266.72 157.37 266.72 157.38 236.85"/>
      <polygon class="cls-2" points="174.61 237.2 191.85 237.56 191.84 266.72 174.6 266.72 174.61 237.2"/>
      <polygon class="cls-4" points="191.85 237.56 209.08 237.91 209.07 266.72 191.84 266.72 191.85 237.56"/>
      <polygon class="cls-4" points="209.08 237.91 226.32 238.26 226.31 266.71 209.07 266.72 209.08 237.91"/>
      <polygon class="cls-4" points="226.32 238.26 243.55 238.61 243.55 266.71 226.31 266.71 226.32 238.26"/>
      <polygon class="cls-4" points="243.55 238.61 260.78 238.97 260.78 266.71 243.55 266.71 243.55 238.61"/>
      <polygon class="cls-4" points="260.78 238.97 278.02 239.32 278.02 266.71 260.78 266.71 260.78 238.97"/>
      <polygon class="cls-4" points="2.24 266.73 19.48 266.73 19.45 299.42 2.21 299.78 2.24 266.73"/>
      <polygon class="cls-4" points="19.48 266.73 36.71 266.73 36.69 299.07 19.45 299.42 19.48 266.73"/>
      <polygon class="cls-4" points="36.71 266.73 53.95 266.73 53.93 298.71 36.69 299.07 36.71 266.73"/>
      <polygon class="cls-4" points="53.95 266.73 71.18 266.72 71.16 298.36 53.93 298.71 53.95 266.73"/>
      <polygon class="cls-2" points="71.18 266.72 88.42 266.72 88.4 298 71.16 298.36 71.18 266.72"/>
      <polygon class="cls-4" points="88.42 266.72 105.66 266.72 105.64 297.65 88.4 298 88.42 266.72"/>
      <polygon class="cls-4" points="105.66 266.72 122.89 266.72 122.88 297.29 105.64 297.65 105.66 266.72"/>
      <polygon class="cls-4" points="122.89 266.72 140.13 266.72 140.12 296.94 122.88 297.29 122.89 266.72"/>
      <polygon class="cls-4" points="140.13 266.72 157.37 266.72 157.35 296.58 140.12 296.94 140.13 266.72"/>
      <polygon class="cls-4" points="157.37 266.72 174.6 266.72 174.59 296.23 157.35 296.58 157.37 266.72"/>
      <polygon class="cls-4" points="174.6 266.72 191.84 266.72 191.83 295.88 174.59 296.23 174.6 266.72"/>
      <polygon class="cls-2" points="191.84 266.72 209.07 266.72 209.07 295.52 191.83 295.88 191.84 266.72"/>
      <polygon class="cls-4" points="209.07 266.72 226.31 266.71 226.31 295.17 209.07 295.52 209.07 266.72"/>
      <polygon class="cls-4" points="226.31 266.71 243.55 266.71 243.54 294.81 226.31 295.17 226.31 266.71"/>
      <polygon class="cls-4" points="243.55 266.71 260.78 266.71 260.78 294.46 243.54 294.81 243.55 266.71"/>
      <polygon class="cls-4" points="260.78 266.71 278.02 266.71 278.02 294.1 260.78 294.46 260.78 266.71"/>
      <polygon class="cls-4" points="2.21 299.78 19.45 299.42 19.42 332.12 2.18 332.83 2.21 299.78"/>
      <polygon class="cls-4" points="19.45 299.42 36.69 299.07 36.66 331.41 19.42 332.12 19.45 299.42"/>
      <polygon class="cls-4" points="36.69 299.07 53.93 298.71 53.9 330.7 36.66 331.41 36.69 299.07"/>
      <polygon class="cls-4" points="53.93 298.71 71.16 298.36 71.14 329.99 53.9 330.7 53.93 298.71"/>
      <polygon class="cls-2" points="71.16 298.36 88.4 298 88.38 329.28 71.14 329.99 71.16 298.36"/>
      <polygon class="cls-4" points="88.4 298 105.64 297.65 105.62 328.58 88.38 329.28 88.4 298"/>
      <polygon class="cls-4" points="105.64 297.65 122.88 297.29 122.86 327.87 105.62 328.58 105.64 297.65"/>
      <polygon class="cls-4" points="122.88 297.29 140.12 296.94 140.1 327.16 122.86 327.87 122.88 297.29"/>
      <polygon class="cls-4" points="140.12 296.94 157.35 296.58 157.34 326.45 140.1 327.16 140.12 296.94"/>
      <polygon class="cls-4" points="157.35 296.58 174.59 296.23 174.58 325.74 157.34 326.45 157.35 296.58"/>
      <polygon class="cls-4" points="174.59 296.23 191.83 295.88 191.82 325.03 174.58 325.74 174.59 296.23"/>
      <polygon class="cls-2" points="191.83 295.88 209.07 295.52 209.06 324.33 191.82 325.03 191.83 295.88"/>
      <polygon class="cls-4" points="209.07 295.52 226.31 295.17 226.3 323.62 209.06 324.33 209.07 295.52"/>
      <polygon class="cls-4" points="226.31 295.17 243.54 294.81 243.54 322.91 226.3 323.62 226.31 295.17"/>
      <polygon class="cls-4" points="243.54 294.81 260.78 294.46 260.78 322.2 243.54 322.91 243.54 294.81"/>
      <polygon class="cls-4" points="260.78 294.46 278.02 294.1 278.02 321.49 260.78 322.2 260.78 294.46"/>
      <polygon class="cls-4" points="2.18 332.83 19.42 332.12 19.4 364.81 2.16 365.87 2.18 332.83"/>
      <polygon class="cls-4" points="19.42 332.12 36.66 331.41 36.64 363.75 19.4 364.81 19.42 332.12"/>
      <polygon class="cls-4" points="36.66 331.41 53.9 330.7 53.88 362.69 36.64 363.75 36.66 331.41"/>
      <polygon class="cls-4" points="53.9 330.7 71.14 329.99 71.12 361.63 53.88 362.69 53.9 330.7"/>
      <polygon class="cls-2" points="71.14 329.99 88.38 329.28 88.36 360.56 71.12 361.63 71.14 329.99"/>
      <polygon class="cls-4" points="88.38 329.28 105.62 328.58 105.6 359.5 88.36 360.56 88.38 329.28"/>
      <polygon class="cls-4" points="105.62 328.58 122.86 327.87 122.85 358.44 105.6 359.5 105.62 328.58"/>
      <polygon class="cls-4" points="122.86 327.87 140.1 327.16 140.09 357.38 122.85 358.44 122.86 327.87"/>
      <polygon class="cls-4" points="140.1 327.16 157.34 326.45 157.33 356.32 140.09 357.38 140.1 327.16"/>
      <polygon class="cls-4" points="157.34 326.45 174.58 325.74 174.57 355.25 157.33 356.32 157.34 326.45"/>
      <polygon class="cls-4" points="174.58 325.74 191.82 325.03 191.81 354.19 174.57 355.25 174.58 325.74"/>
      <polygon class="cls-2" points="191.82 325.03 209.06 324.33 209.05 353.13 191.81 354.19 191.82 325.03"/>
      <polygon class="cls-4" points="209.06 324.33 226.3 323.62 226.29 352.07 209.05 353.13 209.06 324.33"/>
      <polygon class="cls-4" points="226.3 323.62 243.54 322.91 243.54 351.01 226.29 352.07 226.3 323.62"/>
      <polygon class="cls-4" points="243.54 322.91 260.78 322.2 260.78 349.95 243.54 351.01 243.54 322.91"/>
      <polygon class="cls-4" points="260.78 322.2 278.02 321.49 278.02 348.88 260.78 349.95 260.78 322.2"/>
      <polygon class="cls-4" points="2.16 365.87 19.4 364.81 19.37 397.51 2.13 398.92 2.16 365.87"/>
      <polygon class="cls-4" points="19.4 364.81 36.64 363.75 36.62 396.09 19.37 397.51 19.4 364.81"/>
      <polygon class="cls-4" points="36.64 363.75 53.88 362.69 53.86 394.68 36.62 396.09 36.64 363.75"/>
      <polygon class="cls-4" points="53.88 362.69 71.12 361.63 71.1 393.26 53.86 394.68 53.88 362.69"/>
      <polygon class="cls-2" points="71.12 361.63 88.36 360.56 88.34 391.85 71.1 393.26 71.12 361.63"/>
      <polygon class="cls-4" points="88.36 360.56 105.6 359.5 105.59 390.43 88.34 391.85 88.36 360.56"/>
      <polygon class="cls-4" points="105.6 359.5 122.85 358.44 122.83 389.01 105.59 390.43 105.6 359.5"/>
      <polygon class="cls-4" points="122.85 358.44 140.09 357.38 140.07 387.6 122.83 389.01 122.85 358.44"/>
      <polygon class="cls-4" points="140.09 357.38 157.33 356.32 157.32 386.18 140.07 387.6 140.09 357.38"/>
      <polygon class="cls-4" points="157.33 356.32 174.57 355.25 174.56 384.77 157.32 386.18 157.33 356.32"/>
      <polygon class="cls-4" points="174.57 355.25 191.81 354.19 191.8 383.35 174.56 384.77 174.57 355.25"/>
      <polygon class="cls-2" points="191.81 354.19 209.05 353.13 209.05 381.94 191.8 383.35 191.81 354.19"/>
      <polygon class="cls-4" points="209.05 353.13 226.29 352.07 226.29 380.52 209.05 381.94 209.05 353.13"/>
      <polygon class="cls-4" points="226.29 352.07 243.54 351.01 243.53 379.11 226.29 380.52 226.29 352.07"/>
      <polygon class="cls-4" points="243.54 351.01 260.78 349.95 260.78 377.69 243.53 379.11 243.54 351.01"/>
      <polygon class="cls-4" points="260.78 349.95 278.02 348.88 278.02 376.27 260.78 377.69 260.78 349.95"/>
      <polygon class="cls-4" points="2.13 398.92 19.37 397.51 19.35 430.2 2.1 431.97 2.13 398.92"/>
      <polygon class="cls-4" points="19.37 397.51 36.62 396.09 36.59 428.43 19.35 430.2 19.37 397.51"/>
      <polygon class="cls-4" points="36.62 396.09 53.86 394.68 53.84 426.66 36.59 428.43 36.62 396.09"/>
      <polygon class="cls-4" points="53.86 394.68 71.1 393.26 71.08 424.9 53.84 426.66 53.86 394.68"/>
      <polygon class="cls-2" points="71.1 393.26 88.34 391.85 88.33 423.13 71.08 424.9 71.1 393.26"/>
      <polygon class="cls-4" points="88.34 391.85 105.59 390.43 105.57 421.36 88.33 423.13 88.34 391.85"/>
      <polygon class="cls-4" points="105.59 390.43 122.83 389.01 122.82 419.59 105.57 421.36 105.59 390.43"/>
      <polygon class="cls-4" points="122.83 389.01 140.07 387.6 140.06 417.82 122.82 419.59 122.83 389.01"/>
      <polygon class="cls-4" points="140.07 387.6 157.32 386.18 157.31 416.05 140.06 417.82 140.07 387.6"/>
      <polygon class="cls-4" points="157.32 386.18 174.56 384.77 174.55 414.28 157.31 416.05 157.32 386.18"/>
      <polygon class="cls-4" points="174.56 384.77 191.8 383.35 191.79 412.51 174.55 414.28 174.56 384.77"/>
      <polygon class="cls-2" points="191.8 383.35 209.05 381.94 209.04 410.74 191.79 412.51 191.8 383.35"/>
      <polygon class="cls-4" points="209.05 381.94 226.29 380.52 226.28 408.97 209.04 410.74 209.05 381.94"/>
      <polygon class="cls-4" points="226.29 380.52 243.53 379.11 243.53 407.2 226.28 408.97 226.29 380.52"/>
      <polygon class="cls-4" points="243.53 379.11 260.78 377.69 260.77 405.43 243.53 407.2 243.53 379.11"/>
      <polygon class="cls-4" points="260.78 377.69 278.02 376.27 278.02 403.66 260.77 405.43 260.78 377.69"/>
      <polygon class="cls-4" points="2.1 431.97 19.35 430.2 19.32 462.9 2.07 465.02 2.1 431.97"/>
      <polygon class="cls-4" points="19.35 430.2 36.59 428.43 36.57 460.78 19.32 462.9 19.35 430.2"/>
      <polygon class="cls-4" points="36.59 428.43 53.84 426.66 53.81 458.65 36.57 460.78 36.59 428.43"/>
      <polygon class="cls-4" points="53.84 426.66 71.08 424.9 71.06 456.53 53.81 458.65 53.84 426.66"/>
      <polygon class="cls-4" points="71.08 424.9 88.33 423.13 88.31 454.41 71.06 456.53 71.08 424.9"/>
      <polygon class="cls-4" points="88.33 423.13 105.57 421.36 105.55 452.28 88.31 454.41 88.33 423.13"/>
      <polygon class="cls-4" points="105.57 421.36 122.82 419.59 122.8 450.16 105.55 452.28 105.57 421.36"/>
      <polygon class="cls-4" points="122.82 419.59 140.06 417.82 140.05 448.04 122.8 450.16 122.82 419.59"/>
      <polygon class="cls-4" points="140.06 417.82 157.31 416.05 157.29 445.92 140.05 448.04 140.06 417.82"/>
      <polygon class="cls-4" points="157.31 416.05 174.55 414.28 174.54 443.79 157.29 445.92 157.31 416.05"/>
      <polygon class="cls-4" points="174.55 414.28 191.79 412.51 191.79 441.67 174.54 443.79 174.55 414.28"/>
      <polygon class="cls-4" points="191.79 412.51 209.04 410.74 209.03 439.55 191.79 441.67 191.79 412.51"/>
      <polygon class="cls-4" points="209.04 410.74 226.28 408.97 226.28 437.42 209.03 439.55 209.04 410.74"/>
      <polygon class="cls-4" points="226.28 408.97 243.53 407.2 243.53 435.3 226.28 437.42 226.28 408.97"/>
      <polygon class="cls-4" points="243.53 407.2 260.77 405.43 260.77 433.18 243.53 435.3 243.53 407.2"/>
      <polygon class="cls-4" points="260.77 405.43 278.02 403.66 278.02 431.06 260.77 433.18 260.77 405.43"/>
      <polygon class="cls-4" points="2.07 465.02 19.32 462.9 19.29 495.59 2.05 498.07 2.07 465.02"/>
      <polygon class="cls-4" points="19.32 462.9 36.57 460.78 36.54 493.12 19.29 495.59 19.32 462.9"/>
      <polygon class="cls-4" points="36.57 460.78 53.81 458.65 53.79 490.64 36.54 493.12 36.57 460.78"/>
      <polygon class="cls-4" points="53.81 458.65 71.06 456.53 71.04 488.16 53.79 490.64 53.81 458.65"/>
      <polygon class="cls-4" points="71.06 456.53 88.31 454.41 88.29 485.69 71.04 488.16 71.06 456.53"/>
      <polygon class="cls-4" points="88.31 454.41 105.55 452.28 105.54 483.21 88.29 485.69 88.31 454.41"/>
      <polygon class="cls-4" points="105.55 452.28 122.8 450.16 122.78 480.73 105.54 483.21 105.55 452.28"/>
      <polygon class="cls-4" points="122.8 450.16 140.05 448.04 140.03 478.26 122.78 480.73 122.8 450.16"/>
      <polygon class="cls-4" points="140.05 448.04 157.29 445.92 157.28 475.78 140.03 478.26 140.05 448.04"/>
      <polygon class="cls-4" points="157.29 445.92 174.54 443.79 174.53 473.31 157.28 475.78 157.29 445.92"/>
      <polygon class="cls-4" points="174.54 443.79 191.79 441.67 191.78 470.83 174.53 473.31 174.54 443.79"/>
      <polygon class="cls-4" points="191.79 441.67 209.03 439.55 209.03 468.35 191.78 470.83 191.79 441.67"/>
      <polygon class="cls-4" points="209.03 439.55 226.28 437.42 226.27 465.88 209.03 468.35 209.03 439.55"/>
      <polygon class="cls-4" points="226.28 437.42 243.53 435.3 243.52 463.4 226.27 465.88 226.28 437.42"/>
      <polygon class="cls-4" points="243.53 435.3 260.77 433.18 260.77 460.92 243.52 463.4 243.53 435.3"/>
      <polygon class="cls-4" points="260.77 433.18 278.02 431.06 278.02 458.45 260.77 460.92 260.77 433.18"/>
      <polygon class="cls-4" points="2.05 498.07 19.29 495.59 19.27 528.29 2.02 531.12 2.05 498.07"/>
      <polygon class="cls-4" points="19.29 495.59 36.54 493.12 36.52 525.46 19.27 528.29 19.29 495.59"/>
      <polygon class="cls-4" points="36.54 493.12 53.79 490.64 53.77 522.63 36.52 525.46 36.54 493.12"/>
      <polygon class="cls-4" points="53.79 490.64 71.04 488.16 71.02 519.8 53.77 522.63 53.79 490.64"/>
      <polygon class="cls-4" points="71.04 488.16 88.29 485.69 88.27 516.97 71.02 519.8 71.04 488.16"/>
      <polygon class="cls-4" points="88.29 485.69 105.54 483.21 105.52 514.14 88.27 516.97 88.29 485.69"/>
      <polygon class="cls-4" points="105.54 483.21 122.78 480.73 122.77 511.31 105.52 514.14 105.54 483.21"/>
      <polygon class="cls-4" points="122.78 480.73 140.03 478.26 140.02 508.48 122.77 511.31 122.78 480.73"/>
      <polygon class="cls-4" points="140.03 478.26 157.28 475.78 157.27 505.65 140.02 508.48 140.03 478.26"/>
      <polygon class="cls-4" points="157.28 475.78 174.53 473.31 174.52 502.82 157.27 505.65 157.28 475.78"/>
      <polygon class="cls-4" points="174.53 473.31 191.78 470.83 191.77 499.99 174.52 502.82 174.53 473.31"/>
      <polygon class="cls-4" points="191.78 470.83 209.03 468.35 209.02 497.16 191.77 499.99 191.78 470.83"/>
      <polygon class="cls-4" points="209.03 468.35 226.27 465.88 226.27 494.33 209.02 497.16 209.03 468.35"/>
      <polygon class="cls-4" points="226.27 465.88 243.52 463.4 243.52 491.5 226.27 494.33 226.27 465.88"/>
      <polygon class="cls-4" points="243.52 463.4 260.77 460.92 260.77 488.67 243.52 491.5 243.52 463.4"/>
      <polygon class="cls-4" points="260.77 460.92 278.02 458.45 278.02 485.84 260.77 488.67 260.77 460.92"/>
    </g>
  </g>
</svg>