<?xml version="1.0" encoding="utf-8"?>
<!-- Generator: Adobe Illustrator 28.0.0, SVG Export Plug-In . SVG Version: 6.00 Build 0)  -->
<svg version="1.1" id="Layer_1" xmlns="http://www.w3.org/2000/svg" xmlns:xlink="http://www.w3.org/1999/xlink" x="0px" y="0px"
	 viewBox="0 0 450 260.8" style="enable-background:new 0 0 450 260.8;" xml:space="preserve">
<style type="text/css">
	.st0{fill:#FFFFFF;}
	.st1{fill:#3890F9;stroke:#000000;stroke-width:0.62;stroke-miterlimit:10;}
	.st2{fill:#2AD870;stroke:#000000;stroke-width:0.62;stroke-miterlimit:10;}
	.st3{fill:#CC1212;stroke:#000000;stroke-width:0.62;stroke-miterlimit:10;}
</style>
<g>
	<g>
		<polygon class="st0" points="313.1,0 450,22.4 450,238.4 313.1,260.8 		"/>
		<g>
			<polygon points="314.3,1.1 322.7,2.5 322.7,18.5 314.3,17.3 			"/>
			<polygon points="322.7,2.5 331.1,3.9 331.1,19.7 322.7,18.5 			"/>
			<polygon points="331.1,3.9 339.6,5.3 339.5,20.9 331.1,19.7 			"/>
			<polygon points="339.6,5.3 348,6.7 348,22.1 339.5,20.9 			"/>
			<polygon points="348,6.7 356.4,8.1 356.4,23.3 348,22.1 			"/>
			<polygon points="356.4,8.1 364.8,9.4 364.8,24.6 356.4,23.3 			"/>
			<polygon points="364.8,9.4 373.2,10.8 373.2,25.8 364.8,24.6 			"/>
			<polygon points="373.2,10.8 381.7,12.2 381.6,27 373.2,25.8 			"/>
			<polygon points="381.7,12.2 390.1,13.6 390.1,28.2 381.6,27 			"/>
			<polygon points="390.1,13.6 398.5,15 398.5,29.4 390.1,28.2 			"/>
			<polygon points="398.5,15 406.9,16.3 406.9,30.6 398.5,29.4 			"/>
			<polygon points="406.9,16.3 415.3,17.7 415.3,31.8 406.9,30.6 			"/>
			<polygon points="415.3,17.7 423.8,19.1 423.8,33 415.3,31.8 			"/>
			<polygon points="423.8,19.1 432.2,20.5 432.2,34.2 423.8,33 			"/>
			<polygon points="432.2,20.5 440.6,21.9 440.6,35.4 432.2,34.2 			"/>
			<polygon points="440.6,21.9 449,23.3 449,36.7 440.6,35.4 			"/>
			<polygon points="314.3,17.3 322.7,18.5 322.7,34.5 314.3,33.5 			"/>
			<polygon points="322.7,18.5 331.1,19.7 331.1,35.5 322.7,34.5 			"/>
			<polygon points="331.1,19.7 339.5,20.9 339.5,36.6 331.1,35.5 			"/>
			<polygon points="339.5,20.9 348,22.1 348,37.6 339.5,36.6 			"/>
			<polygon points="348,22.1 356.4,23.3 356.4,38.6 348,37.6 			"/>
			<polygon points="356.4,23.3 364.8,24.6 364.8,39.7 356.4,38.6 			"/>
			<polygon points="364.8,24.6 373.2,25.8 373.2,40.7 364.8,39.7 			"/>
			<polygon points="373.2,25.8 381.6,27 381.6,41.8 373.2,40.7 			"/>
			<polygon points="381.6,27 390.1,28.2 390.1,42.8 381.6,41.8 			"/>
			<polygon points="390.1,28.2 398.5,29.4 398.5,43.8 390.1,42.8 			"/>
			<polygon points="398.5,29.4 406.9,30.6 406.9,44.9 398.5,43.8 			"/>
			<polygon points="406.9,30.6 415.3,31.8 415.3,45.9 406.9,44.9 			"/>
			<polygon points="415.3,31.8 423.8,33 423.8,46.9 415.3,45.9 			"/>
			<polygon points="423.8,33 432.2,34.2 432.2,48 423.8,46.9 			"/>
			<polygon points="432.2,34.2 440.6,35.4 440.6,49 432.2,48 			"/>
			<polygon points="440.6,35.4 449,36.7 449,50 440.6,49 			"/>
			<polygon points="314.3,33.5 322.7,34.5 322.7,50.5 314.3,49.6 			"/>
			<polygon points="322.7,34.5 331.1,35.5 331.1,51.3 322.7,50.5 			"/>
			<polygon points="331.1,35.5 339.5,36.6 339.5,52.2 331.1,51.3 			"/>
			<polygon points="339.5,36.6 348,37.6 347.9,53.1 339.5,52.2 			"/>
			<polygon points="348,37.6 356.4,38.6 356.4,53.9 347.9,53.1 			"/>
			<polygon points="356.4,38.6 364.8,39.7 364.8,54.8 356.4,53.9 			"/>
			<polygon points="364.8,39.7 373.2,40.7 373.2,55.7 364.8,54.8 			"/>
			<polygon points="373.2,40.7 381.6,41.8 381.6,56.5 373.2,55.7 			"/>
			<polygon points="381.6,41.8 390.1,42.8 390.1,57.4 381.6,56.5 			"/>
			<polygon points="390.1,42.8 398.5,43.8 398.5,58.3 390.1,57.4 			"/>
			<polygon points="398.5,43.8 406.9,44.9 406.9,59.1 398.5,58.3 			"/>
			<polygon points="406.9,44.9 415.3,45.9 415.3,60 406.9,59.1 			"/>
			<polygon points="415.3,45.9 423.8,46.9 423.7,60.8 415.3,60 			"/>
			<polygon points="423.8,46.9 432.2,48 432.2,61.7 423.7,60.8 			"/>
			<polygon points="432.2,48 440.6,49 440.6,62.6 432.2,61.7 			"/>
			<polygon points="440.6,49 449,50 449,63.4 440.6,62.6 			"/>
			<polygon points="314.3,49.6 322.7,50.5 322.7,66.5 314.2,65.8 			"/>
			<polygon points="322.7,50.5 331.1,51.3 331.1,67.2 322.7,66.5 			"/>
			<polygon points="331.1,51.3 339.5,52.2 339.5,67.8 331.1,67.2 			"/>
			<polygon points="339.5,52.2 347.9,53.1 347.9,68.5 339.5,67.8 			"/>
			<polygon class="st1" points="347.9,53.1 356.4,53.9 356.4,69.2 347.9,68.5 			"/>
			<polygon class="st1" points="356.4,53.9 364.8,54.8 364.8,69.9 356.4,69.2 			"/>
			<polygon class="st1" points="364.8,54.8 373.2,55.7 373.2,70.6 364.8,69.9 			"/>
			<polygon class="st1" points="373.2,55.7 381.6,56.5 381.6,71.3 373.2,70.6 			"/>
			<polygon points="381.6,56.5 390.1,57.4 390.1,72 381.6,71.3 			"/>
			<polygon points="390.1,57.4 398.5,58.3 398.5,72.7 390.1,72 			"/>
			<polygon points="398.5,58.3 406.9,59.1 406.9,73.4 398.5,72.7 			"/>
			<polygon points="406.9,59.1 415.3,60 415.3,74.1 406.9,73.4 			"/>
			<polygon points="415.3,60 423.7,60.8 423.7,74.8 415.3,74.1 			"/>
			<polygon points="423.7,60.8 432.2,61.7 432.2,75.4 423.7,74.8 			"/>
			<polygon points="432.2,61.7 440.6,62.6 440.6,76.1 432.2,75.4 			"/>
			<polygon points="440.6,62.6 449,63.4 449,76.8 440.6,76.1 			"/>
			<polygon points="314.2,65.8 322.7,66.5 322.7,82.4 314.2,81.9 			"/>
			<polygon points="322.7,66.5 331.1,67.2 331.1,83 322.7,82.4 			"/>
			<polygon points="331.1,67.2 339.5,67.8 339.5,83.5 331.1,83 			"/>
			<polygon class="st1" points="339.5,67.8 347.9,68.5 347.9,84 339.5,83.5 			"/>
			<polygon points="347.9,68.5 356.4,69.2 356.3,84.5 347.9,84 			"/>
			<polygon points="356.4,69.2 364.8,69.9 364.8,85 356.3,84.5 			"/>
			<polygon points="364.8,69.9 373.2,70.6 373.2,85.6 364.8,85 			"/>
			<polygon points="373.2,70.6 381.6,71.3 381.6,86.1 373.2,85.6 			"/>
			<polygon class="st1" points="381.6,71.3 390.1,72 390,86.6 381.6,86.1 			"/>
			<polygon points="390.1,72 398.5,72.7 398.5,87.1 390,86.6 			"/>
			<polygon points="398.5,72.7 406.9,73.4 406.9,87.6 398.5,87.1 			"/>
			<polygon points="406.9,73.4 415.3,74.1 415.3,88.1 406.9,87.6 			"/>
			<polygon points="415.3,74.1 423.7,74.8 423.7,88.7 415.3,88.1 			"/>
			<polygon points="423.7,74.8 432.2,75.4 432.2,89.2 423.7,88.7 			"/>
			<polygon points="432.2,75.4 440.6,76.1 440.6,89.7 432.2,89.2 			"/>
			<polygon points="440.6,76.1 449,76.8 449,90.2 440.6,89.7 			"/>
			<polygon points="314.2,81.9 322.7,82.4 322.6,98.4 314.2,98.1 			"/>
			<polygon points="322.7,82.4 331.1,83 331.1,98.8 322.6,98.4 			"/>
			<polygon points="331.1,83 339.5,83.5 339.5,99.1 331.1,98.8 			"/>
			<polygon class="st1" points="339.5,83.5 347.9,84 347.9,99.5 339.5,99.1 			"/>
			<polygon points="347.9,84 356.3,84.5 356.3,99.8 347.9,99.5 			"/>
			<polygon points="356.3,84.5 364.8,85 364.8,100.2 356.3,99.8 			"/>
			<polygon points="364.8,85 373.2,85.6 373.2,100.5 364.8,100.2 			"/>
			<polygon points="373.2,85.6 381.6,86.1 381.6,100.8 373.2,100.5 			"/>
			<polygon points="381.6,86.1 390,86.6 390,101.2 381.6,100.8 			"/>
			<polygon points="390,86.6 398.5,87.1 398.5,101.5 390,101.2 			"/>
			<polygon points="398.5,87.1 406.9,87.6 406.9,101.9 398.5,101.5 			"/>
			<polygon points="406.9,87.6 415.3,88.1 415.3,102.2 406.9,101.9 			"/>
			<polygon points="415.3,88.1 423.7,88.7 423.7,102.6 415.3,102.2 			"/>
			<polygon points="423.7,88.7 432.2,89.2 432.2,102.9 423.7,102.6 			"/>
			<polygon points="432.2,89.2 440.6,89.7 440.6,103.3 432.2,102.9 			"/>
			<polygon points="440.6,89.7 449,90.2 449,103.6 440.6,103.3 			"/>
			<polygon points="314.2,98.1 322.6,98.4 322.6,114.4 314.2,114.2 			"/>
			<polygon points="322.6,98.4 331.1,98.8 331.1,114.6 322.6,114.4 			"/>
			<polygon points="331.1,98.8 339.5,99.1 339.5,114.8 331.1,114.6 			"/>
			<polygon class="st1" points="339.5,99.1 347.9,99.5 347.9,114.9 339.5,114.8 			"/>
			<polygon points="347.9,99.5 356.3,99.8 356.3,115.1 347.9,114.9 			"/>
			<polygon points="356.3,99.8 364.8,100.2 364.8,115.3 356.3,115.1 			"/>
			<polygon points="364.8,100.2 373.2,100.5 373.2,115.5 364.8,115.3 			"/>
			<polygon points="373.2,100.5 381.6,100.8 381.6,115.6 373.2,115.5 			"/>
			<polygon points="381.6,100.8 390,101.2 390,115.8 381.6,115.6 			"/>
			<polygon points="390,101.2 398.5,101.5 398.5,116 390,115.8 			"/>
			<polygon points="398.5,101.5 406.9,101.9 406.9,116.1 398.5,116 			"/>
			<polygon points="406.9,101.9 415.3,102.2 415.3,116.3 406.9,116.1 			"/>
			<polygon points="415.3,102.2 423.7,102.6 423.7,116.5 415.3,116.3 			"/>
			<polygon points="423.7,102.6 432.2,102.9 432.2,116.7 423.7,116.5 			"/>
			<polygon points="432.2,102.9 440.6,103.3 440.6,116.8 432.2,116.7 			"/>
			<polygon points="440.6,103.3 449,103.6 449,117 440.6,116.8 			"/>
			<polygon points="314.2,114.2 322.6,114.4 322.6,130.4 314.2,130.4 			"/>
			<polygon points="322.6,114.4 331.1,114.6 331,130.4 322.6,130.4 			"/>
			<polygon points="331.1,114.6 339.5,114.8 339.5,130.4 331,130.4 			"/>
			<polygon points="339.5,114.8 347.9,114.9 347.9,130.4 339.5,130.4 			"/>
			<polygon class="st1" points="347.9,114.9 356.3,115.1 356.3,130.4 347.9,130.4 			"/>
			<polygon class="st1" points="356.3,115.1 364.8,115.3 364.7,130.4 356.3,130.4 			"/>
			<polygon class="st1" points="364.8,115.3 373.2,115.5 373.2,130.4 364.7,130.4 			"/>
			<polygon class="st1" points="373.2,115.5 381.6,115.6 381.6,130.4 373.2,130.4 			"/>
			<polygon points="381.6,115.6 390,115.8 390,130.4 381.6,130.4 			"/>
			<polygon points="390,115.8 398.5,116 398.5,130.4 390,130.4 			"/>
			<polygon points="398.5,116 406.9,116.1 406.9,130.4 398.5,130.4 			"/>
			<polygon points="406.9,116.1 415.3,116.3 415.3,130.4 406.9,130.4 			"/>
			<polygon points="415.3,116.3 423.7,116.5 423.7,130.4 415.3,130.4 			"/>
			<polygon points="423.7,116.5 432.2,116.7 432.2,130.4 423.7,130.4 			"/>
			<polygon points="432.2,116.7 440.6,116.8 440.6,130.4 432.2,130.4 			"/>
			<polygon points="440.6,116.8 449,117 449,130.4 440.6,130.4 			"/>
			<polygon points="314.2,130.4 322.6,130.4 322.6,146.4 314.2,146.6 			"/>
			<polygon points="322.6,130.4 331,130.4 331,146.2 322.6,146.4 			"/>
			<polygon points="331,130.4 339.5,130.4 339.5,146 331,146.2 			"/>
			<polygon points="339.5,130.4 347.9,130.4 347.9,145.9 339.5,146 			"/>
			<polygon points="347.9,130.4 356.3,130.4 356.3,145.7 347.9,145.9 			"/>
			<polygon points="356.3,130.4 364.7,130.4 364.7,145.5 356.3,145.7 			"/>
			<polygon points="364.7,130.4 373.2,130.4 373.2,145.3 364.7,145.5 			"/>
			<polygon points="373.2,130.4 381.6,130.4 381.6,145.2 373.2,145.3 			"/>
			<polygon class="st1" points="381.6,130.4 390,130.4 390,145 381.6,145.2 			"/>
			<polygon points="390,130.4 398.5,130.4 398.5,144.8 390,145 			"/>
			<polygon points="398.5,130.4 406.9,130.4 406.9,144.7 398.5,144.8 			"/>
			<polygon class="st1" points="406.9,130.4 415.3,130.4 415.3,144.5 406.9,144.7 			"/>
			<polygon class="st1" points="415.3,130.4 423.7,130.4 423.7,144.3 415.3,144.5 			"/>
			<polygon points="423.7,130.4 432.2,130.4 432.2,144.1 423.7,144.3 			"/>
			<polygon points="432.2,130.4 440.6,130.4 440.6,144 432.2,144.1 			"/>
			<polygon points="440.6,130.4 449,130.4 449,143.8 440.6,144 			"/>
			<polygon points="314.2,146.6 322.6,146.4 322.6,162.4 314.2,162.7 			"/>
			<polygon points="322.6,146.4 331,146.2 331,162 322.6,162.4 			"/>
			<polygon points="331,146.2 339.5,146 339.4,161.7 331,162 			"/>
			<polygon points="339.5,146 347.9,145.9 347.9,161.3 339.4,161.7 			"/>
			<polygon points="347.9,145.9 356.3,145.7 356.3,161 347.9,161.3 			"/>
			<polygon points="356.3,145.7 364.7,145.5 364.7,160.6 356.3,161 			"/>
			<polygon points="364.7,145.5 373.2,145.3 373.2,160.3 364.7,160.6 			"/>
			<polygon points="373.2,145.3 381.6,145.2 381.6,159.9 373.2,160.3 			"/>
			<polygon class="st1" points="381.6,145.2 390,145 390,159.6 381.6,159.9 			"/>
			<polygon points="390,145 398.5,144.8 398.4,159.2 390,159.6 			"/>
			<polygon class="st1" points="398.5,144.8 406.9,144.7 406.9,158.9 398.4,159.2 			"/>
			<polygon points="406.9,144.7 415.3,144.5 415.3,158.6 406.9,158.9 			"/>
			<polygon points="415.3,144.5 423.7,144.3 423.7,158.2 415.3,158.6 			"/>
			<polygon points="423.7,144.3 432.2,144.1 432.2,157.9 423.7,158.2 			"/>
			<polygon points="432.2,144.1 440.6,144 440.6,157.5 432.2,157.9 			"/>
			<polygon points="440.6,144 449,143.8 449,157.2 440.6,157.5 			"/>
			<polygon points="314.2,162.7 322.6,162.4 322.6,178.4 314.1,178.9 			"/>
			<polygon points="322.6,162.4 331,162 331,177.8 322.6,178.4 			"/>
			<polygon points="331,162 339.4,161.7 339.4,177.3 331,177.8 			"/>
			<polygon points="339.4,161.7 347.9,161.3 347.9,176.8 339.4,177.3 			"/>
			<polygon points="347.9,161.3 356.3,161 356.3,176.3 347.9,176.8 			"/>
			<polygon points="356.3,161 364.7,160.6 364.7,175.8 356.3,176.3 			"/>
			<polygon points="364.7,160.6 373.2,160.3 373.2,175.2 364.7,175.8 			"/>
			<polygon points="373.2,160.3 381.6,159.9 381.6,174.7 373.2,175.2 			"/>
			<polygon class="st1" points="381.6,159.9 390,159.6 390,174.2 381.6,174.7 			"/>
			<polygon points="390,159.6 398.4,159.2 398.4,173.7 390,174.2 			"/>
			<polygon class="st1" points="398.4,159.2 406.9,158.9 406.9,173.2 398.4,173.7 			"/>
			<polygon points="406.9,158.9 415.3,158.6 415.3,172.6 406.9,173.2 			"/>
			<polygon points="415.3,158.6 423.7,158.2 423.7,172.1 415.3,172.6 			"/>
			<polygon points="423.7,158.2 432.2,157.9 432.2,171.6 423.7,172.1 			"/>
			<polygon points="432.2,157.9 440.6,157.5 440.6,171.1 432.2,171.6 			"/>
			<polygon points="440.6,157.5 449,157.2 449,170.6 440.6,171.1 			"/>
			<polygon points="314.1,178.9 322.6,178.4 322.6,194.3 314.1,195 			"/>
			<polygon points="322.6,178.4 331,177.8 331,193.6 322.6,194.3 			"/>
			<polygon points="331,177.8 339.4,177.3 339.4,193 331,193.6 			"/>
			<polygon class="st1" points="339.4,177.3 347.9,176.8 347.9,192.3 339.4,193 			"/>
			<polygon points="347.9,176.8 356.3,176.3 356.3,191.6 347.9,192.3 			"/>
			<polygon points="356.3,176.3 364.7,175.8 364.7,190.9 356.3,191.6 			"/>
			<polygon points="364.7,175.8 373.2,175.2 373.1,190.2 364.7,190.9 			"/>
			<polygon points="373.2,175.2 381.6,174.7 381.6,189.5 373.1,190.2 			"/>
			<polygon class="st1" points="381.6,174.7 390,174.2 390,188.8 381.6,189.5 			"/>
			<polygon points="390,174.2 398.4,173.7 398.4,188.1 390,188.8 			"/>
			<polygon class="st1" points="398.4,173.7 406.9,173.2 406.9,187.4 398.4,188.1 			"/>
			<polygon points="406.9,173.2 415.3,172.6 415.3,186.7 406.9,187.4 			"/>
			<polygon points="415.3,172.6 423.7,172.1 423.7,186 415.3,186.7 			"/>
			<polygon points="423.7,172.1 432.2,171.6 432.2,185.3 423.7,186 			"/>
			<polygon points="432.2,171.6 440.6,171.1 440.6,184.6 432.2,185.3 			"/>
			<polygon points="440.6,171.1 449,170.6 449,184 440.6,184.6 			"/>
			<polygon points="314.1,195 322.6,194.3 322.6,210.3 314.1,211.2 			"/>
			<polygon points="322.6,194.3 331,193.6 331,209.5 322.6,210.3 			"/>
			<polygon points="331,193.6 339.4,193 339.4,208.6 331,209.5 			"/>
			<polygon points="339.4,193 347.9,192.3 347.8,207.7 339.4,208.6 			"/>
			<polygon class="st1" points="347.9,192.3 356.3,191.6 356.3,206.9 347.8,207.7 			"/>
			<polygon class="st1" points="356.3,191.6 364.7,190.9 364.7,206 356.3,206.9 			"/>
			<polygon class="st1" points="364.7,190.9 373.1,190.2 373.1,205.1 364.7,206 			"/>
			<polygon class="st1" points="373.1,190.2 381.6,189.5 381.6,204.3 373.1,205.1 			"/>
			<polygon points="381.6,189.5 390,188.8 390,203.4 381.6,204.3 			"/>
			<polygon points="390,188.8 398.4,188.1 398.4,202.5 390,203.4 			"/>
			<polygon points="398.4,188.1 406.9,187.4 406.9,201.7 398.4,202.5 			"/>
			<polygon class="st1" points="406.9,187.4 415.3,186.7 415.3,200.8 406.9,201.7 			"/>
			<polygon class="st1" points="415.3,186.7 423.7,186 423.7,199.9 415.3,200.8 			"/>
			<polygon points="423.7,186 432.2,185.3 432.2,199.1 423.7,199.9 			"/>
			<polygon points="432.2,185.3 440.6,184.6 440.6,198.2 432.2,199.1 			"/>
			<polygon points="440.6,184.6 449,184 449,197.3 440.6,198.2 			"/>
			<polygon points="314.1,211.2 322.6,210.3 322.5,226.3 314.1,227.3 			"/>
			<polygon points="322.6,210.3 331,209.5 331,225.3 322.5,226.3 			"/>
			<polygon points="331,209.5 339.4,208.6 339.4,224.2 331,225.3 			"/>
			<polygon points="339.4,208.6 347.8,207.7 347.8,223.2 339.4,224.2 			"/>
			<polygon points="347.8,207.7 356.3,206.9 356.3,222.2 347.8,223.2 			"/>
			<polygon points="356.3,206.9 364.7,206 364.7,221.1 356.3,222.2 			"/>
			<polygon points="364.7,206 373.1,205.1 373.1,220.1 364.7,221.1 			"/>
			<polygon points="373.1,205.1 381.6,204.3 381.6,219 373.1,220.1 			"/>
			<polygon points="381.6,204.3 390,203.4 390,218 381.6,219 			"/>
			<polygon points="390,203.4 398.4,202.5 398.4,217 390,218 			"/>
			<polygon points="398.4,202.5 406.9,201.7 406.9,215.9 398.4,217 			"/>
			<polygon points="406.9,201.7 415.3,200.8 415.3,214.9 406.9,215.9 			"/>
			<polygon points="415.3,200.8 423.7,199.9 423.7,213.8 415.3,214.9 			"/>
			<polygon points="423.7,199.9 432.2,199.1 432.2,212.8 423.7,213.8 			"/>
			<polygon points="432.2,199.1 440.6,198.2 440.6,211.8 432.2,212.8 			"/>
			<polygon points="440.6,198.2 449,197.3 449,210.7 440.6,211.8 			"/>
			<polygon points="314.1,227.3 322.5,226.3 322.5,242.3 314.1,243.5 			"/>
			<polygon points="322.5,226.3 331,225.3 331,241.1 322.5,242.3 			"/>
			<polygon points="331,225.3 339.4,224.2 339.4,239.9 331,241.1 			"/>
			<polygon points="339.4,224.2 347.8,223.2 347.8,238.7 339.4,239.9 			"/>
			<polygon points="347.8,223.2 356.3,222.2 356.3,237.4 347.8,238.7 			"/>
			<polygon points="356.3,222.2 364.7,221.1 364.7,236.2 356.3,237.4 			"/>
			<polygon points="364.7,221.1 373.1,220.1 373.1,235 364.7,236.2 			"/>
			<polygon points="373.1,220.1 381.6,219 381.6,233.8 373.1,235 			"/>
			<polygon points="381.6,219 390,218 390,232.6 381.6,233.8 			"/>
			<polygon points="390,218 398.4,217 398.4,231.4 390,232.6 			"/>
			<polygon points="398.4,217 406.9,215.9 406.9,230.2 398.4,231.4 			"/>
			<polygon points="406.9,215.9 415.3,214.9 415.3,229 406.9,230.2 			"/>
			<polygon points="415.3,214.9 423.7,213.8 423.7,227.8 415.3,229 			"/>
			<polygon points="423.7,213.8 432.2,212.8 432.2,226.5 423.7,227.8 			"/>
			<polygon points="432.2,212.8 440.6,211.8 440.6,225.3 432.2,226.5 			"/>
			<polygon points="440.6,211.8 449,210.7 449,224.1 440.6,225.3 			"/>
			<polygon points="314.1,243.5 322.5,242.3 322.5,258.3 314.1,259.7 			"/>
			<polygon points="322.5,242.3 331,241.1 330.9,256.9 322.5,258.3 			"/>
			<polygon points="331,241.1 339.4,239.9 339.4,255.5 330.9,256.9 			"/>
			<polygon points="339.4,239.9 347.8,238.7 347.8,254.1 339.4,255.5 			"/>
			<polygon points="347.8,238.7 356.3,237.4 356.2,252.7 347.8,254.1 			"/>
			<polygon points="356.3,237.4 364.7,236.2 364.7,251.4 356.2,252.7 			"/>
			<polygon points="364.7,236.2 373.1,235 373.1,250 364.7,251.4 			"/>
			<polygon points="373.1,235 381.6,233.8 381.5,248.6 373.1,250 			"/>
			<polygon points="381.6,233.8 390,232.6 390,247.2 381.5,248.6 			"/>
			<polygon points="390,232.6 398.4,231.4 398.4,245.8 390,247.2 			"/>
			<polygon points="398.4,231.4 406.9,230.2 406.8,244.4 398.4,245.8 			"/>
			<polygon points="406.9,230.2 415.3,229 415.3,243.1 406.8,244.4 			"/>
			<polygon points="415.3,229 423.7,227.8 423.7,241.7 415.3,243.1 			"/>
			<polygon points="423.7,227.8 432.2,226.5 432.1,240.3 423.7,241.7 			"/>
			<polygon points="432.2,226.5 440.6,225.3 440.6,238.9 432.1,240.3 			"/>
			<polygon points="440.6,225.3 449,224.1 449,237.5 440.6,238.9 			"/>
		</g>
	</g>
	<g>
		<polygon class="st0" points="156.5,0 293.5,22.4 293.5,238.4 156.5,260.8 		"/>
		<g>
			<polygon points="157.7,1.1 166.2,2.5 166.2,18.5 157.7,17.3 			"/>
			<polygon points="166.2,2.5 174.6,3.9 174.6,19.7 166.2,18.5 			"/>
			<polygon points="174.6,3.9 183,5.3 183,20.9 174.6,19.7 			"/>
			<polygon points="183,5.3 191.4,6.7 191.4,22.1 183,20.9 			"/>
			<polygon points="191.4,6.7 199.8,8.1 199.8,23.3 191.4,22.1 			"/>
			<polygon points="199.8,8.1 208.3,9.4 208.3,24.6 199.8,23.3 			"/>
			<polygon points="208.3,9.4 216.7,10.8 216.7,25.8 208.3,24.6 			"/>
			<polygon points="216.7,10.8 225.1,12.2 225.1,27 216.7,25.8 			"/>
			<polygon points="225.1,12.2 233.5,13.6 233.5,28.2 225.1,27 			"/>
			<polygon points="233.5,13.6 241.9,15 241.9,29.4 233.5,28.2 			"/>
			<polygon points="241.9,15 250.4,16.3 250.4,30.6 241.9,29.4 			"/>
			<polygon points="250.4,16.3 258.8,17.7 258.8,31.8 250.4,30.6 			"/>
			<polygon points="258.8,17.7 267.2,19.1 267.2,33 258.8,31.8 			"/>
			<polygon points="267.2,19.1 275.6,20.5 275.6,34.2 267.2,33 			"/>
			<polygon points="275.6,20.5 284,21.9 284,35.4 275.6,34.2 			"/>
			<polygon points="284,21.9 292.5,23.3 292.5,36.7 284,35.4 			"/>
			<polygon points="157.7,17.3 166.2,18.5 166.1,34.5 157.7,33.5 			"/>
			<polygon points="166.2,18.5 174.6,19.7 174.6,35.5 166.1,34.5 			"/>
			<polygon points="174.6,19.7 183,20.9 183,36.6 174.6,35.5 			"/>
			<polygon points="183,20.9 191.4,22.1 191.4,37.6 183,36.6 			"/>
			<polygon points="191.4,22.1 199.8,23.3 199.8,38.6 191.4,37.6 			"/>
			<polygon points="199.8,23.3 208.3,24.6 208.3,39.7 199.8,38.6 			"/>
			<polygon points="208.3,24.6 216.7,25.8 216.7,40.7 208.3,39.7 			"/>
			<polygon points="216.7,25.8 225.1,27 225.1,41.8 216.7,40.7 			"/>
			<polygon points="225.1,27 233.5,28.2 233.5,42.8 225.1,41.8 			"/>
			<polygon points="233.5,28.2 241.9,29.4 241.9,43.8 233.5,42.8 			"/>
			<polygon points="241.9,29.4 250.4,30.6 250.4,44.9 241.9,43.8 			"/>
			<polygon points="250.4,30.6 258.8,31.8 258.8,45.9 250.4,44.9 			"/>
			<polygon points="258.8,31.8 267.2,33 267.2,46.9 258.8,45.9 			"/>
			<polygon points="267.2,33 275.6,34.2 275.6,48 267.2,46.9 			"/>
			<polygon points="275.6,34.2 284,35.4 284,49 275.6,48 			"/>
			<polygon points="284,35.4 292.5,36.7 292.5,50 284,49 			"/>
			<polygon points="157.7,33.5 166.1,34.5 166.1,50.5 157.7,49.6 			"/>
			<polygon points="166.1,34.5 174.6,35.5 174.6,51.3 166.1,50.5 			"/>
			<polygon points="174.6,35.5 183,36.6 183,52.2 174.6,51.3 			"/>
			<polygon points="183,36.6 191.4,37.6 191.4,53.1 183,52.2 			"/>
			<polygon points="191.4,37.6 199.8,38.6 199.8,53.9 191.4,53.1 			"/>
			<polygon points="199.8,38.6 208.3,39.7 208.2,54.8 199.8,53.9 			"/>
			<polygon points="208.3,39.7 216.7,40.7 216.7,55.7 208.2,54.8 			"/>
			<polygon points="216.7,40.7 225.1,41.8 225.1,56.5 216.7,55.7 			"/>
			<polygon points="225.1,41.8 233.5,42.8 233.5,57.4 225.1,56.5 			"/>
			<polygon points="233.5,42.8 241.9,43.8 241.9,58.3 233.5,57.4 			"/>
			<polygon points="241.9,43.8 250.4,44.9 250.4,59.1 241.9,58.3 			"/>
			<polygon points="250.4,44.9 258.8,45.9 258.8,60 250.4,59.1 			"/>
			<polygon points="258.8,45.9 267.2,46.9 267.2,60.8 258.8,60 			"/>
			<polygon points="267.2,46.9 275.6,48 275.6,61.7 267.2,60.8 			"/>
			<polygon points="275.6,48 284,49 284,62.6 275.6,61.7 			"/>
			<polygon points="284,49 292.5,50 292.5,63.4 284,62.6 			"/>
			<polygon points="157.7,49.6 166.1,50.5 166.1,66.5 157.7,65.8 			"/>
			<polygon points="166.1,50.5 174.6,51.3 174.5,67.2 166.1,66.5 			"/>
			<polygon points="174.6,51.3 183,52.2 183,67.8 174.5,67.2 			"/>
			<polygon points="183,52.2 191.4,53.1 191.4,68.5 183,67.8 			"/>
			<polygon points="191.4,53.1 199.8,53.9 199.8,69.2 191.4,68.5 			"/>
			<polygon class="st2" points="199.8,53.9 208.2,54.8 208.2,69.9 199.8,69.2 			"/>
			<polygon class="st2" points="208.2,54.8 216.7,55.7 216.7,70.6 208.2,69.9 			"/>
			<polygon class="st2" points="216.7,55.7 225.1,56.5 225.1,71.3 216.7,70.6 			"/>
			<polygon class="st2" points="225.1,56.5 233.5,57.4 233.5,72 225.1,71.3 			"/>
			<polygon class="st2" points="233.5,57.4 241.9,58.3 241.9,72.7 233.5,72 			"/>
			<polygon class="st2" points="241.9,58.3 250.4,59.1 250.3,73.4 241.9,72.7 			"/>
			<polygon points="250.4,59.1 258.8,60 258.8,74.1 250.3,73.4 			"/>
			<polygon points="258.8,60 267.2,60.8 267.2,74.8 258.8,74.1 			"/>
			<polygon points="267.2,60.8 275.6,61.7 275.6,75.4 267.2,74.8 			"/>
			<polygon points="275.6,61.7 284,62.6 284,76.1 275.6,75.4 			"/>
			<polygon points="284,62.6 292.5,63.4 292.5,76.8 284,76.1 			"/>
			<polygon points="157.7,65.8 166.1,66.5 166.1,82.4 157.7,81.9 			"/>
			<polygon points="166.1,66.5 174.5,67.2 174.5,83 166.1,82.4 			"/>
			<polygon points="174.5,67.2 183,67.8 183,83.5 174.5,83 			"/>
			<polygon points="183,67.8 191.4,68.5 191.4,84 183,83.5 			"/>
			<polygon points="191.4,68.5 199.8,69.2 199.8,84.5 191.4,84 			"/>
			<polygon points="199.8,69.2 208.2,69.9 208.2,85 199.8,84.5 			"/>
			<polygon points="208.2,69.9 216.7,70.6 216.6,85.6 208.2,85 			"/>
			<polygon class="st2" points="216.7,70.6 225.1,71.3 225.1,86.1 216.6,85.6 			"/>
			<polygon class="st2" points="225.1,71.3 233.5,72 233.5,86.6 225.1,86.1 			"/>
			<polygon points="233.5,72 241.9,72.7 241.9,87.1 233.5,86.6 			"/>
			<polygon points="241.9,72.7 250.3,73.4 250.3,87.6 241.9,87.1 			"/>
			<polygon points="250.3,73.4 258.8,74.1 258.8,88.1 250.3,87.6 			"/>
			<polygon points="258.8,74.1 267.2,74.8 267.2,88.7 258.8,88.1 			"/>
			<polygon points="267.2,74.8 275.6,75.4 275.6,89.2 267.2,88.7 			"/>
			<polygon points="275.6,75.4 284,76.1 284,89.7 275.6,89.2 			"/>
			<polygon points="284,76.1 292.5,76.8 292.5,90.2 284,89.7 			"/>
			<polygon points="157.7,81.9 166.1,82.4 166.1,98.4 157.7,98.1 			"/>
			<polygon points="166.1,82.4 174.5,83 174.5,98.8 166.1,98.4 			"/>
			<polygon points="174.5,83 183,83.5 182.9,99.1 174.5,98.8 			"/>
			<polygon points="183,83.5 191.4,84 191.4,99.5 182.9,99.1 			"/>
			<polygon points="191.4,84 199.8,84.5 199.8,99.8 191.4,99.5 			"/>
			<polygon points="199.8,84.5 208.2,85 208.2,100.2 199.8,99.8 			"/>
			<polygon points="208.2,85 216.6,85.6 216.6,100.5 208.2,100.2 			"/>
			<polygon class="st2" points="216.6,85.6 225.1,86.1 225.1,100.8 216.6,100.5 			"/>
			<polygon class="st2" points="225.1,86.1 233.5,86.6 233.5,101.2 225.1,100.8 			"/>
			<polygon points="233.5,86.6 241.9,87.1 241.9,101.5 233.5,101.2 			"/>
			<polygon points="241.9,87.1 250.3,87.6 250.3,101.9 241.9,101.5 			"/>
			<polygon points="250.3,87.6 258.8,88.1 258.8,102.2 250.3,101.9 			"/>
			<polygon points="258.8,88.1 267.2,88.7 267.2,102.6 258.8,102.2 			"/>
			<polygon points="267.2,88.7 275.6,89.2 275.6,102.9 267.2,102.6 			"/>
			<polygon points="275.6,89.2 284,89.7 284,103.3 275.6,102.9 			"/>
			<polygon points="284,89.7 292.5,90.2 292.5,103.6 284,103.3 			"/>
			<polygon points="157.7,98.1 166.1,98.4 166.1,114.4 157.7,114.2 			"/>
			<polygon points="166.1,98.4 174.5,98.8 174.5,114.6 166.1,114.4 			"/>
			<polygon points="174.5,98.8 182.9,99.1 182.9,114.8 174.5,114.6 			"/>
			<polygon points="182.9,99.1 191.4,99.5 191.4,114.9 182.9,114.8 			"/>
			<polygon points="191.4,99.5 199.8,99.8 199.8,115.1 191.4,114.9 			"/>
			<polygon points="199.8,99.8 208.2,100.2 208.2,115.3 199.8,115.1 			"/>
			<polygon points="208.2,100.2 216.6,100.5 216.6,115.5 208.2,115.3 			"/>
			<polygon class="st2" points="216.6,100.5 225.1,100.8 225.1,115.6 216.6,115.5 			"/>
			<polygon class="st2" points="225.1,100.8 233.5,101.2 233.5,115.8 225.1,115.6 			"/>
			<polygon points="233.5,101.2 241.9,101.5 241.9,116 233.5,115.8 			"/>
			<polygon points="241.9,101.5 250.3,101.9 250.3,116.1 241.9,116 			"/>
			<polygon points="250.3,101.9 258.8,102.2 258.8,116.3 250.3,116.1 			"/>
			<polygon points="258.8,102.2 267.2,102.6 267.2,116.5 258.8,116.3 			"/>
			<polygon points="267.2,102.6 275.6,102.9 275.6,116.7 267.2,116.5 			"/>
			<polygon points="275.6,102.9 284,103.3 284,116.8 275.6,116.7 			"/>
			<polygon points="284,103.3 292.5,103.6 292.5,117 284,116.8 			"/>
			<polygon points="157.7,114.2 166.1,114.4 166.1,130.4 157.6,130.4 			"/>
			<polygon points="166.1,114.4 174.5,114.6 174.5,130.4 166.1,130.4 			"/>
			<polygon points="174.5,114.6 182.9,114.8 182.9,130.4 174.5,130.4 			"/>
			<polygon points="182.9,114.8 191.4,114.9 191.3,130.4 182.9,130.4 			"/>
			<polygon points="191.4,114.9 199.8,115.1 199.8,130.4 191.3,130.4 			"/>
			<polygon points="199.8,115.1 208.2,115.3 208.2,130.4 199.8,130.4 			"/>
			<polygon points="208.2,115.3 216.6,115.5 216.6,130.4 208.2,130.4 			"/>
			<polygon class="st2" points="216.6,115.5 225.1,115.6 225.1,130.4 216.6,130.4 			"/>
			<polygon class="st2" points="225.1,115.6 233.5,115.8 233.5,130.4 225.1,130.4 			"/>
			<polygon points="233.5,115.8 241.9,116 241.9,130.4 233.5,130.4 			"/>
			<polygon points="241.9,116 250.3,116.1 250.3,130.4 241.9,130.4 			"/>
			<polygon points="250.3,116.1 258.8,116.3 258.8,130.4 250.3,130.4 			"/>
			<polygon points="258.8,116.3 267.2,116.5 267.2,130.4 258.8,130.4 			"/>
			<polygon points="267.2,116.5 275.6,116.7 275.6,130.4 267.2,130.4 			"/>
			<polygon points="275.6,116.7 284,116.8 284,130.4 275.6,130.4 			"/>
			<polygon points="284,116.8 292.5,117 292.5,130.4 284,130.4 			"/>
			<polygon points="157.6,130.4 166.1,130.4 166.1,146.4 157.6,146.6 			"/>
			<polygon points="166.1,130.4 174.5,130.4 174.5,146.2 166.1,146.4 			"/>
			<polygon points="174.5,130.4 182.9,130.4 182.9,146 174.5,146.2 			"/>
			<polygon points="182.9,130.4 191.3,130.4 191.3,145.9 182.9,146 			"/>
			<polygon points="191.3,130.4 199.8,130.4 199.8,145.7 191.3,145.9 			"/>
			<polygon points="199.8,130.4 208.2,130.4 208.2,145.5 199.8,145.7 			"/>
			<polygon points="208.2,130.4 216.6,130.4 216.6,145.3 208.2,145.5 			"/>
			<polygon class="st2" points="216.6,130.4 225.1,130.4 225,145.2 216.6,145.3 			"/>
			<polygon class="st2" points="225.1,130.4 233.5,130.4 233.5,145 225,145.2 			"/>
			<polygon points="233.5,130.4 241.9,130.4 241.9,144.8 233.5,145 			"/>
			<polygon points="241.9,130.4 250.3,130.4 250.3,144.7 241.9,144.8 			"/>
			<polygon points="250.3,130.4 258.8,130.4 258.8,144.5 250.3,144.7 			"/>
			<polygon points="258.8,130.4 267.2,130.4 267.2,144.3 258.8,144.5 			"/>
			<polygon points="267.2,130.4 275.6,130.4 275.6,144.1 267.2,144.3 			"/>
			<polygon points="275.6,130.4 284,130.4 284,144 275.6,144.1 			"/>
			<polygon points="284,130.4 292.5,130.4 292.5,143.8 284,144 			"/>
			<polygon points="157.6,146.6 166.1,146.4 166,162.4 157.6,162.7 			"/>
			<polygon points="166.1,146.4 174.5,146.2 174.5,162 166,162.4 			"/>
			<polygon points="174.5,146.2 182.9,146 182.9,161.7 174.5,162 			"/>
			<polygon points="182.9,146 191.3,145.9 191.3,161.3 182.9,161.7 			"/>
			<polygon points="191.3,145.9 199.8,145.7 199.8,161 191.3,161.3 			"/>
			<polygon points="199.8,145.7 208.2,145.5 208.2,160.6 199.8,161 			"/>
			<polygon points="208.2,145.5 216.6,145.3 216.6,160.3 208.2,160.6 			"/>
			<polygon class="st2" points="216.6,145.3 225,145.2 225,159.9 216.6,160.3 			"/>
			<polygon class="st2" points="225,145.2 233.5,145 233.5,159.6 225,159.9 			"/>
			<polygon points="233.5,145 241.9,144.8 241.9,159.2 233.5,159.6 			"/>
			<polygon points="241.9,144.8 250.3,144.7 250.3,158.9 241.9,159.2 			"/>
			<polygon points="250.3,144.7 258.8,144.5 258.8,158.6 250.3,158.9 			"/>
			<polygon points="258.8,144.5 267.2,144.3 267.2,158.2 258.8,158.6 			"/>
			<polygon points="267.2,144.3 275.6,144.1 275.6,157.9 267.2,158.2 			"/>
			<polygon points="275.6,144.1 284,144 284,157.5 275.6,157.9 			"/>
			<polygon points="284,144 292.5,143.8 292.5,157.2 284,157.5 			"/>
			<polygon points="157.6,162.7 166,162.4 166,178.4 157.6,178.9 			"/>
			<polygon points="166,162.4 174.5,162 174.5,177.8 166,178.4 			"/>
			<polygon points="174.5,162 182.9,161.7 182.9,177.3 174.5,177.8 			"/>
			<polygon points="182.9,161.7 191.3,161.3 191.3,176.8 182.9,177.3 			"/>
			<polygon points="191.3,161.3 199.8,161 199.7,176.3 191.3,176.8 			"/>
			<polygon points="199.8,161 208.2,160.6 208.2,175.8 199.7,176.3 			"/>
			<polygon points="208.2,160.6 216.6,160.3 216.6,175.2 208.2,175.8 			"/>
			<polygon class="st2" points="216.6,160.3 225,159.9 225,174.7 216.6,175.2 			"/>
			<polygon class="st2" points="225,159.9 233.5,159.6 233.5,174.2 225,174.7 			"/>
			<polygon points="233.5,159.6 241.9,159.2 241.9,173.7 233.5,174.2 			"/>
			<polygon points="241.9,159.2 250.3,158.9 250.3,173.2 241.9,173.7 			"/>
			<polygon points="250.3,158.9 258.8,158.6 258.8,172.6 250.3,173.2 			"/>
			<polygon points="258.8,158.6 267.2,158.2 267.2,172.1 258.8,172.6 			"/>
			<polygon points="267.2,158.2 275.6,157.9 275.6,171.6 267.2,172.1 			"/>
			<polygon points="275.6,157.9 284,157.5 284,171.1 275.6,171.6 			"/>
			<polygon points="284,157.5 292.5,157.2 292.5,170.6 284,171.1 			"/>
			<polygon points="157.6,178.9 166,178.4 166,194.3 157.6,195 			"/>
			<polygon points="166,178.4 174.5,177.8 174.4,193.6 166,194.3 			"/>
			<polygon points="174.5,177.8 182.9,177.3 182.9,193 174.4,193.6 			"/>
			<polygon points="182.9,177.3 191.3,176.8 191.3,192.3 182.9,193 			"/>
			<polygon points="191.3,176.8 199.7,176.3 199.7,191.6 191.3,192.3 			"/>
			<polygon points="199.7,176.3 208.2,175.8 208.2,190.9 199.7,191.6 			"/>
			<polygon points="208.2,175.8 216.6,175.2 216.6,190.2 208.2,190.9 			"/>
			<polygon class="st2" points="216.6,175.2 225,174.7 225,189.5 216.6,190.2 			"/>
			<polygon class="st2" points="225,174.7 233.5,174.2 233.5,188.8 225,189.5 			"/>
			<polygon points="233.5,174.2 241.9,173.7 241.9,188.1 233.5,188.8 			"/>
			<polygon points="241.9,173.7 250.3,173.2 250.3,187.4 241.9,188.1 			"/>
			<polygon points="250.3,173.2 258.8,172.6 258.7,186.7 250.3,187.4 			"/>
			<polygon points="258.8,172.6 267.2,172.1 267.2,186 258.7,186.7 			"/>
			<polygon points="267.2,172.1 275.6,171.6 275.6,185.3 267.2,186 			"/>
			<polygon points="275.6,171.6 284,171.1 284,184.6 275.6,185.3 			"/>
			<polygon points="284,171.1 292.5,170.6 292.5,184 284,184.6 			"/>
			<polygon points="157.6,195 166,194.3 166,210.3 157.6,211.2 			"/>
			<polygon points="166,194.3 174.4,193.6 174.4,209.5 166,210.3 			"/>
			<polygon points="174.4,193.6 182.9,193 182.9,208.6 174.4,209.5 			"/>
			<polygon points="182.9,193 191.3,192.3 191.3,207.7 182.9,208.6 			"/>
			<polygon points="191.3,192.3 199.7,191.6 199.7,206.9 191.3,207.7 			"/>
			<polygon class="st2" points="199.7,191.6 208.2,190.9 208.2,206 199.7,206.9 			"/>
			<polygon class="st2" points="208.2,190.9 216.6,190.2 216.6,205.1 208.2,206 			"/>
			<polygon class="st2" points="216.6,190.2 225,189.5 225,204.3 216.6,205.1 			"/>
			<polygon class="st2" points="225,189.5 233.5,188.8 233.5,203.4 225,204.3 			"/>
			<polygon class="st2" points="233.5,188.8 241.9,188.1 241.9,202.5 233.5,203.4 			"/>
			<polygon class="st2" points="241.9,188.1 250.3,187.4 250.3,201.7 241.9,202.5 			"/>
			<polygon points="250.3,187.4 258.7,186.7 258.7,200.8 250.3,201.7 			"/>
			<polygon points="258.7,186.7 267.2,186 267.2,199.9 258.7,200.8 			"/>
			<polygon points="267.2,186 275.6,185.3 275.6,199.1 267.2,199.9 			"/>
			<polygon points="275.6,185.3 284,184.6 284,198.2 275.6,199.1 			"/>
			<polygon points="284,184.6 292.5,184 292.5,197.3 284,198.2 			"/>
			<polygon points="157.6,211.2 166,210.3 166,226.3 157.6,227.3 			"/>
			<polygon points="166,210.3 174.4,209.5 174.4,225.3 166,226.3 			"/>
			<polygon points="174.4,209.5 182.9,208.6 182.9,224.2 174.4,225.3 			"/>
			<polygon points="182.9,208.6 191.3,207.7 191.3,223.2 182.9,224.2 			"/>
			<polygon points="191.3,207.7 199.7,206.9 199.7,222.2 191.3,223.2 			"/>
			<polygon points="199.7,206.9 208.2,206 208.2,221.1 199.7,222.2 			"/>
			<polygon points="208.2,206 216.6,205.1 216.6,220.1 208.2,221.1 			"/>
			<polygon points="216.6,205.1 225,204.3 225,219 216.6,220.1 			"/>
			<polygon points="225,204.3 233.5,203.4 233.4,218 225,219 			"/>
			<polygon points="233.5,203.4 241.9,202.5 241.9,217 233.4,218 			"/>
			<polygon points="241.9,202.5 250.3,201.7 250.3,215.9 241.9,217 			"/>
			<polygon points="250.3,201.7 258.7,200.8 258.7,214.9 250.3,215.9 			"/>
			<polygon points="258.7,200.8 267.2,199.9 267.2,213.8 258.7,214.9 			"/>
			<polygon points="267.2,199.9 275.6,199.1 275.6,212.8 267.2,213.8 			"/>
			<polygon points="275.6,199.1 284,198.2 284,211.8 275.6,212.8 			"/>
			<polygon points="284,198.2 292.5,197.3 292.5,210.7 284,211.8 			"/>
			<polygon points="157.6,227.3 166,226.3 166,242.3 157.5,243.5 			"/>
			<polygon points="166,226.3 174.4,225.3 174.4,241.1 166,242.3 			"/>
			<polygon points="174.4,225.3 182.9,224.2 182.8,239.9 174.4,241.1 			"/>
			<polygon points="182.9,224.2 191.3,223.2 191.3,238.7 182.8,239.9 			"/>
			<polygon points="191.3,223.2 199.7,222.2 199.7,237.4 191.3,238.7 			"/>
			<polygon points="199.7,222.2 208.2,221.1 208.1,236.2 199.7,237.4 			"/>
			<polygon points="208.2,221.1 216.6,220.1 216.6,235 208.1,236.2 			"/>
			<polygon points="216.6,220.1 225,219 225,233.8 216.6,235 			"/>
			<polygon points="225,219 233.4,218 233.4,232.6 225,233.8 			"/>
			<polygon points="233.4,218 241.9,217 241.9,231.4 233.4,232.6 			"/>
			<polygon points="241.9,217 250.3,215.9 250.3,230.2 241.9,231.4 			"/>
			<polygon points="250.3,215.9 258.7,214.9 258.7,229 250.3,230.2 			"/>
			<polygon points="258.7,214.9 267.2,213.8 267.2,227.8 258.7,229 			"/>
			<polygon points="267.2,213.8 275.6,212.8 275.6,226.5 267.2,227.8 			"/>
			<polygon points="275.6,212.8 284,211.8 284,225.3 275.6,226.5 			"/>
			<polygon points="284,211.8 292.5,210.7 292.5,224.1 284,225.3 			"/>
			<polygon points="157.5,243.5 166,242.3 166,258.3 157.5,259.7 			"/>
			<polygon points="166,242.3 174.4,241.1 174.4,256.9 166,258.3 			"/>
			<polygon points="174.4,241.1 182.8,239.9 182.8,255.5 174.4,256.9 			"/>
			<polygon points="182.8,239.9 191.3,238.7 191.3,254.1 182.8,255.5 			"/>
			<polygon points="191.3,238.7 199.7,237.4 199.7,252.7 191.3,254.1 			"/>
			<polygon points="199.7,237.4 208.1,236.2 208.1,251.4 199.7,252.7 			"/>
			<polygon points="208.1,236.2 216.6,235 216.6,250 208.1,251.4 			"/>
			<polygon points="216.6,235 225,233.8 225,248.6 216.6,250 			"/>
			<polygon points="225,233.8 233.4,232.6 233.4,247.2 225,248.6 			"/>
			<polygon points="233.4,232.6 241.9,231.4 241.9,245.8 233.4,247.2 			"/>
			<polygon points="241.9,231.4 250.3,230.2 250.3,244.4 241.9,245.8 			"/>
			<polygon points="250.3,230.2 258.7,229 258.7,243.1 250.3,244.4 			"/>
			<polygon points="258.7,229 267.2,227.8 267.2,241.7 258.7,243.1 			"/>
			<polygon points="267.2,227.8 275.6,226.5 275.6,240.3 267.2,241.7 			"/>
			<polygon points="275.6,226.5 284,225.3 284,238.9 275.6,240.3 			"/>
			<polygon points="284,225.3 292.5,224.1 292.5,237.5 284,238.9 			"/>
		</g>
	</g>
	<g>
		<polygon class="st0" points="0,0 136.9,22.4 136.9,238.4 0,260.8 		"/>
		<g>
			<polygon points="1.2,1.1 9.6,2.5 9.6,18.5 1.2,17.3 			"/>
			<polygon points="9.6,2.5 18,3.9 18,19.7 9.6,18.5 			"/>
			<polygon points="18,3.9 26.5,5.3 26.4,20.9 18,19.7 			"/>
			<polygon points="26.5,5.3 34.9,6.7 34.9,22.1 26.4,20.9 			"/>
			<polygon points="34.9,6.7 43.3,8.1 43.3,23.3 34.9,22.1 			"/>
			<polygon points="43.3,8.1 51.7,9.4 51.7,24.6 43.3,23.3 			"/>
			<polygon points="51.7,9.4 60.1,10.8 60.1,25.8 51.7,24.6 			"/>
			<polygon points="60.1,10.8 68.6,12.2 68.6,27 60.1,25.8 			"/>
			<polygon points="68.6,12.2 77,13.6 77,28.2 68.6,27 			"/>
			<polygon points="77,13.6 85.4,15 85.4,29.4 77,28.2 			"/>
			<polygon points="85.4,15 93.8,16.3 93.8,30.6 85.4,29.4 			"/>
			<polygon points="93.8,16.3 102.2,17.7 102.2,31.8 93.8,30.6 			"/>
			<polygon points="102.2,17.7 110.7,19.1 110.7,33 102.2,31.8 			"/>
			<polygon points="110.7,19.1 119.1,20.5 119.1,34.2 110.7,33 			"/>
			<polygon points="119.1,20.5 127.5,21.9 127.5,35.4 119.1,34.2 			"/>
			<polygon points="127.5,21.9 135.9,23.3 135.9,36.7 127.5,35.4 			"/>
			<polygon points="1.2,17.3 9.6,18.5 9.6,34.5 1.2,33.5 			"/>
			<polygon points="9.6,18.5 18,19.7 18,35.5 9.6,34.5 			"/>
			<polygon points="18,19.7 26.4,20.9 26.4,36.6 18,35.5 			"/>
			<polygon points="26.4,20.9 34.9,22.1 34.9,37.6 26.4,36.6 			"/>
			<polygon points="34.9,22.1 43.3,23.3 43.3,38.6 34.9,37.6 			"/>
			<polygon points="43.3,23.3 51.7,24.6 51.7,39.7 43.3,38.6 			"/>
			<polygon points="51.7,24.6 60.1,25.8 60.1,40.7 51.7,39.7 			"/>
			<polygon points="60.1,25.8 68.6,27 68.5,41.8 60.1,40.7 			"/>
			<polygon points="68.6,27 77,28.2 77,42.8 68.5,41.8 			"/>
			<polygon points="77,28.2 85.4,29.4 85.4,43.8 77,42.8 			"/>
			<polygon points="85.4,29.4 93.8,30.6 93.8,44.9 85.4,43.8 			"/>
			<polygon points="93.8,30.6 102.2,31.8 102.2,45.9 93.8,44.9 			"/>
			<polygon points="102.2,31.8 110.7,33 110.7,46.9 102.2,45.9 			"/>
			<polygon points="110.7,33 119.1,34.2 119.1,48 110.7,46.9 			"/>
			<polygon points="119.1,34.2 127.5,35.4 127.5,49 119.1,48 			"/>
			<polygon points="127.5,35.4 135.9,36.7 135.9,50 127.5,49 			"/>
			<polygon points="1.2,33.5 9.6,34.5 9.6,50.5 1.2,49.6 			"/>
			<polygon points="9.6,34.5 18,35.5 18,51.3 9.6,50.5 			"/>
			<polygon points="18,35.5 26.4,36.6 26.4,52.2 18,51.3 			"/>
			<polygon points="26.4,36.6 34.9,37.6 34.9,53.1 26.4,52.2 			"/>
			<polygon points="34.9,37.6 43.3,38.6 43.3,53.9 34.9,53.1 			"/>
			<polygon points="43.3,38.6 51.7,39.7 51.7,54.8 43.3,53.9 			"/>
			<polygon points="51.7,39.7 60.1,40.7 60.1,55.7 51.7,54.8 			"/>
			<polygon points="60.1,40.7 68.5,41.8 68.5,56.5 60.1,55.7 			"/>
			<polygon points="68.5,41.8 77,42.8 77,57.4 68.5,56.5 			"/>
			<polygon points="77,42.8 85.4,43.8 85.4,58.3 77,57.4 			"/>
			<polygon points="85.4,43.8 93.8,44.9 93.8,59.1 85.4,58.3 			"/>
			<polygon points="93.8,44.9 102.2,45.9 102.2,60 93.8,59.1 			"/>
			<polygon points="102.2,45.9 110.7,46.9 110.7,60.8 102.2,60 			"/>
			<polygon points="110.7,46.9 119.1,48 119.1,61.7 110.7,60.8 			"/>
			<polygon points="119.1,48 127.5,49 127.5,62.6 119.1,61.7 			"/>
			<polygon points="127.5,49 135.9,50 135.9,63.4 127.5,62.6 			"/>
			<polygon points="1.2,49.6 9.6,50.5 9.6,66.5 1.1,65.8 			"/>
			<polygon points="9.6,50.5 18,51.3 18,67.2 9.6,66.5 			"/>
			<polygon points="18,51.3 26.4,52.2 26.4,67.8 18,67.2 			"/>
			<polygon points="26.4,52.2 34.9,53.1 34.8,68.5 26.4,67.8 			"/>
			<polygon class="st3" points="34.9,53.1 43.3,53.9 43.3,69.2 34.8,68.5 			"/>
			<polygon class="st3" points="43.3,53.9 51.7,54.8 51.7,69.9 43.3,69.2 			"/>
			<polygon class="st3" points="51.7,54.8 60.1,55.7 60.1,70.6 51.7,69.9 			"/>
			<polygon class="st3" points="60.1,55.7 68.5,56.5 68.5,71.3 60.1,70.6 			"/>
			<polygon class="st3" points="68.5,56.5 77,57.4 77,72 68.5,71.3 			"/>
			<polygon class="st3" points="77,57.4 85.4,58.3 85.4,72.7 77,72 			"/>
			<polygon class="st3" points="85.4,58.3 93.8,59.1 93.8,73.4 85.4,72.7 			"/>
			<polygon points="93.8,59.1 102.2,60 102.2,74.1 93.8,73.4 			"/>
			<polygon points="102.2,60 110.7,60.8 110.6,74.8 102.2,74.1 			"/>
			<polygon points="110.7,60.8 119.1,61.7 119.1,75.4 110.6,74.8 			"/>
			<polygon points="119.1,61.7 127.5,62.6 127.5,76.1 119.1,75.4 			"/>
			<polygon points="127.5,62.6 135.9,63.4 135.9,76.8 127.5,76.1 			"/>
			<polygon points="1.1,65.8 9.6,66.5 9.6,82.4 1.1,81.9 			"/>
			<polygon points="9.6,66.5 18,67.2 18,83 9.6,82.4 			"/>
			<polygon points="18,67.2 26.4,67.8 26.4,83.5 18,83 			"/>
			<polygon points="26.4,67.8 34.8,68.5 34.8,84 26.4,83.5 			"/>
			<polygon class="st3" points="34.8,68.5 43.3,69.2 43.3,84.5 34.8,84 			"/>
			<polygon points="43.3,69.2 51.7,69.9 51.7,85 43.3,84.5 			"/>
			<polygon points="51.7,69.9 60.1,70.6 60.1,85.6 51.7,85 			"/>
			<polygon points="60.1,70.6 68.5,71.3 68.5,86.1 60.1,85.6 			"/>
			<polygon points="68.5,71.3 77,72 77,86.6 68.5,86.1 			"/>
			<polygon points="77,72 85.4,72.7 85.4,87.1 77,86.6 			"/>
			<polygon points="85.4,72.7 93.8,73.4 93.8,87.6 85.4,87.1 			"/>
			<polygon class="st3" points="93.8,73.4 102.2,74.1 102.2,88.1 93.8,87.6 			"/>
			<polygon points="102.2,74.1 110.6,74.8 110.6,88.7 102.2,88.1 			"/>
			<polygon points="110.6,74.8 119.1,75.4 119.1,89.2 110.6,88.7 			"/>
			<polygon points="119.1,75.4 127.5,76.1 127.5,89.7 119.1,89.2 			"/>
			<polygon points="127.5,76.1 135.9,76.8 135.9,90.2 127.5,89.7 			"/>
			<polygon points="1.1,81.9 9.6,82.4 9.5,98.4 1.1,98.1 			"/>
			<polygon points="9.6,82.4 18,83 18,98.8 9.5,98.4 			"/>
			<polygon points="18,83 26.4,83.5 26.4,99.1 18,98.8 			"/>
			<polygon points="26.4,83.5 34.8,84 34.8,99.5 26.4,99.1 			"/>
			<polygon class="st3" points="34.8,84 43.3,84.5 43.2,99.8 34.8,99.5 			"/>
			<polygon points="43.3,84.5 51.7,85 51.7,100.2 43.2,99.8 			"/>
			<polygon points="51.7,85 60.1,85.6 60.1,100.5 51.7,100.2 			"/>
			<polygon points="60.1,85.6 68.5,86.1 68.5,100.8 60.1,100.5 			"/>
			<polygon points="68.5,86.1 77,86.6 76.9,101.2 68.5,100.8 			"/>
			<polygon points="77,86.6 85.4,87.1 85.4,101.5 76.9,101.2 			"/>
			<polygon points="85.4,87.1 93.8,87.6 93.8,101.9 85.4,101.5 			"/>
			<polygon class="st3" points="93.8,87.6 102.2,88.1 102.2,102.2 93.8,101.9 			"/>
			<polygon points="102.2,88.1 110.6,88.7 110.6,102.6 102.2,102.2 			"/>
			<polygon points="110.6,88.7 119.1,89.2 119.1,102.9 110.6,102.6 			"/>
			<polygon points="119.1,89.2 127.5,89.7 127.5,103.3 119.1,102.9 			"/>
			<polygon points="127.5,89.7 135.9,90.2 135.9,103.6 127.5,103.3 			"/>
			<polygon points="1.1,98.1 9.5,98.4 9.5,114.4 1.1,114.2 			"/>
			<polygon points="9.5,98.4 18,98.8 18,114.6 9.5,114.4 			"/>
			<polygon points="18,98.8 26.4,99.1 26.4,114.8 18,114.6 			"/>
			<polygon points="26.4,99.1 34.8,99.5 34.8,114.9 26.4,114.8 			"/>
			<polygon class="st3" points="34.8,99.5 43.2,99.8 43.2,115.1 34.8,114.9 			"/>
			<polygon points="43.2,99.8 51.7,100.2 51.7,115.3 43.2,115.1 			"/>
			<polygon points="51.7,100.2 60.1,100.5 60.1,115.5 51.7,115.3 			"/>
			<polygon points="60.1,100.5 68.5,100.8 68.5,115.6 60.1,115.5 			"/>
			<polygon points="68.5,100.8 76.9,101.2 76.9,115.8 68.5,115.6 			"/>
			<polygon points="76.9,101.2 85.4,101.5 85.4,116 76.9,115.8 			"/>
			<polygon points="85.4,101.5 93.8,101.9 93.8,116.1 85.4,116 			"/>
			<polygon class="st3" points="93.8,101.9 102.2,102.2 102.2,116.3 93.8,116.1 			"/>
			<polygon points="102.2,102.2 110.6,102.6 110.6,116.5 102.2,116.3 			"/>
			<polygon points="110.6,102.6 119.1,102.9 119.1,116.7 110.6,116.5 			"/>
			<polygon points="119.1,102.9 127.5,103.3 127.5,116.8 119.1,116.7 			"/>
			<polygon points="127.5,103.3 135.9,103.6 135.9,117 127.5,116.8 			"/>
			<polygon points="1.1,114.2 9.5,114.4 9.5,130.4 1.1,130.4 			"/>
			<polygon points="9.5,114.4 18,114.6 17.9,130.4 9.5,130.4 			"/>
			<polygon points="18,114.6 26.4,114.8 26.4,130.4 17.9,130.4 			"/>
			<polygon points="26.4,114.8 34.8,114.9 34.8,130.4 26.4,130.4 			"/>
			<polygon class="st3" points="34.8,114.9 43.2,115.1 43.2,130.4 34.8,130.4 			"/>
			<polygon class="st3" points="43.2,115.1 51.7,115.3 51.7,130.4 43.2,130.4 			"/>
			<polygon class="st3" points="51.7,115.3 60.1,115.5 60.1,130.4 51.7,130.4 			"/>
			<polygon class="st3" points="60.1,115.5 68.5,115.6 68.5,130.4 60.1,130.4 			"/>
			<polygon class="st3" points="68.5,115.6 76.9,115.8 76.9,130.4 68.5,130.4 			"/>
			<polygon class="st3" points="76.9,115.8 85.4,116 85.4,130.4 76.9,130.4 			"/>
			<polygon class="st3" points="85.4,116 93.8,116.1 93.8,130.4 85.4,130.4 			"/>
			<polygon points="93.8,116.1 102.2,116.3 102.2,130.4 93.8,130.4 			"/>
			<polygon points="102.2,116.3 110.6,116.5 110.6,130.4 102.2,130.4 			"/>
			<polygon points="110.6,116.5 119.1,116.7 119.1,130.4 110.6,130.4 			"/>
			<polygon points="119.1,116.7 127.5,116.8 127.5,130.4 119.1,130.4 			"/>
			<polygon points="127.5,116.8 135.9,117 135.9,130.4 127.5,130.4 			"/>
			<polygon points="1.1,130.4 9.5,130.4 9.5,146.4 1.1,146.6 			"/>
			<polygon points="9.5,130.4 17.9,130.4 17.9,146.2 9.5,146.4 			"/>
			<polygon points="17.9,130.4 26.4,130.4 26.4,146 17.9,146.2 			"/>
			<polygon points="26.4,130.4 34.8,130.4 34.8,145.9 26.4,146 			"/>
			<polygon class="st3" points="34.8,130.4 43.2,130.4 43.2,145.7 34.8,145.9 			"/>
			<polygon points="43.2,130.4 51.7,130.4 51.6,145.5 43.2,145.7 			"/>
			<polygon points="51.7,130.4 60.1,130.4 60.1,145.3 51.6,145.5 			"/>
			<polygon points="60.1,130.4 68.5,130.4 68.5,145.2 60.1,145.3 			"/>
			<polygon points="68.5,130.4 76.9,130.4 76.9,145 68.5,145.2 			"/>
			<polygon points="76.9,130.4 85.4,130.4 85.4,144.8 76.9,145 			"/>
			<polygon points="85.4,130.4 93.8,130.4 93.8,144.7 85.4,144.8 			"/>
			<polygon class="st3" points="93.8,130.4 102.2,130.4 102.2,144.5 93.8,144.7 			"/>
			<polygon points="102.2,130.4 110.6,130.4 110.6,144.3 102.2,144.5 			"/>
			<polygon points="110.6,130.4 119.1,130.4 119.1,144.1 110.6,144.3 			"/>
			<polygon points="119.1,130.4 127.5,130.4 127.5,144 119.1,144.1 			"/>
			<polygon points="127.5,130.4 135.9,130.4 135.9,143.8 127.5,144 			"/>
			<polygon points="1.1,146.6 9.5,146.4 9.5,162.4 1.1,162.7 			"/>
			<polygon points="9.5,146.4 17.9,146.2 17.9,162 9.5,162.4 			"/>
			<polygon points="17.9,146.2 26.4,146 26.4,161.7 17.9,162 			"/>
			<polygon points="26.4,146 34.8,145.9 34.8,161.3 26.4,161.7 			"/>
			<polygon class="st3" points="34.8,145.9 43.2,145.7 43.2,161 34.8,161.3 			"/>
			<polygon points="43.2,145.7 51.6,145.5 51.6,160.6 43.2,161 			"/>
			<polygon points="51.6,145.5 60.1,145.3 60.1,160.3 51.6,160.6 			"/>
			<polygon points="60.1,145.3 68.5,145.2 68.5,159.9 60.1,160.3 			"/>
			<polygon points="68.5,145.2 76.9,145 76.9,159.6 68.5,159.9 			"/>
			<polygon points="76.9,145 85.4,144.8 85.3,159.2 76.9,159.6 			"/>
			<polygon points="85.4,144.8 93.8,144.7 93.8,158.9 85.3,159.2 			"/>
			<polygon class="st3" points="93.8,144.7 102.2,144.5 102.2,158.6 93.8,158.9 			"/>
			<polygon points="102.2,144.5 110.6,144.3 110.6,158.2 102.2,158.6 			"/>
			<polygon points="110.6,144.3 119.1,144.1 119.1,157.9 110.6,158.2 			"/>
			<polygon points="119.1,144.1 127.5,144 127.5,157.5 119.1,157.9 			"/>
			<polygon points="127.5,144 135.9,143.8 135.9,157.2 127.5,157.5 			"/>
			<polygon points="1.1,162.7 9.5,162.4 9.5,178.4 1.1,178.9 			"/>
			<polygon points="9.5,162.4 17.9,162 17.9,177.8 9.5,178.4 			"/>
			<polygon points="17.9,162 26.4,161.7 26.3,177.3 17.9,177.8 			"/>
			<polygon points="26.4,161.7 34.8,161.3 34.8,176.8 26.3,177.3 			"/>
			<polygon class="st3" points="34.8,161.3 43.2,161 43.2,176.3 34.8,176.8 			"/>
			<polygon points="43.2,161 51.6,160.6 51.6,175.8 43.2,176.3 			"/>
			<polygon points="51.6,160.6 60.1,160.3 60.1,175.2 51.6,175.8 			"/>
			<polygon points="60.1,160.3 68.5,159.9 68.5,174.7 60.1,175.2 			"/>
			<polygon points="68.5,159.9 76.9,159.6 76.9,174.2 68.5,174.7 			"/>
			<polygon points="76.9,159.6 85.3,159.2 85.3,173.7 76.9,174.2 			"/>
			<polygon points="85.3,159.2 93.8,158.9 93.8,173.2 85.3,173.7 			"/>
			<polygon class="st3" points="93.8,158.9 102.2,158.6 102.2,172.6 93.8,173.2 			"/>
			<polygon points="102.2,158.6 110.6,158.2 110.6,172.1 102.2,172.6 			"/>
			<polygon points="110.6,158.2 119.1,157.9 119.1,171.6 110.6,172.1 			"/>
			<polygon points="119.1,157.9 127.5,157.5 127.5,171.1 119.1,171.6 			"/>
			<polygon points="127.5,157.5 135.9,157.2 135.9,170.6 127.5,171.1 			"/>
			<polygon points="1.1,178.9 9.5,178.4 9.5,194.3 1,195 			"/>
			<polygon points="9.5,178.4 17.9,177.8 17.9,193.6 9.5,194.3 			"/>
			<polygon points="17.9,177.8 26.3,177.3 26.3,193 17.9,193.6 			"/>
			<polygon points="26.3,177.3 34.8,176.8 34.8,192.3 26.3,193 			"/>
			<polygon class="st3" points="34.8,176.8 43.2,176.3 43.2,191.6 34.8,192.3 			"/>
			<polygon points="43.2,176.3 51.6,175.8 51.6,190.9 43.2,191.6 			"/>
			<polygon points="51.6,175.8 60.1,175.2 60,190.2 51.6,190.9 			"/>
			<polygon points="60.1,175.2 68.5,174.7 68.5,189.5 60,190.2 			"/>
			<polygon points="68.5,174.7 76.9,174.2 76.9,188.8 68.5,189.5 			"/>
			<polygon points="76.9,174.2 85.3,173.7 85.3,188.1 76.9,188.8 			"/>
			<polygon points="85.3,173.7 93.8,173.2 93.8,187.4 85.3,188.1 			"/>
			<polygon class="st3" points="93.8,173.2 102.2,172.6 102.2,186.7 93.8,187.4 			"/>
			<polygon points="102.2,172.6 110.6,172.1 110.6,186 102.2,186.7 			"/>
			<polygon points="110.6,172.1 119.1,171.6 119.1,185.3 110.6,186 			"/>
			<polygon points="119.1,171.6 127.5,171.1 127.5,184.6 119.1,185.3 			"/>
			<polygon points="127.5,171.1 135.9,170.6 135.9,184 127.5,184.6 			"/>
			<polygon points="1,195 9.5,194.3 9.5,210.3 1,211.2 			"/>
			<polygon points="9.5,194.3 17.9,193.6 17.9,209.5 9.5,210.3 			"/>
			<polygon points="17.9,193.6 26.3,193 26.3,208.6 17.9,209.5 			"/>
			<polygon points="26.3,193 34.8,192.3 34.8,207.7 26.3,208.6 			"/>
			<polygon class="st3" points="34.8,192.3 43.2,191.6 43.2,206.9 34.8,207.7 			"/>
			<polygon points="43.2,191.6 51.6,190.9 51.6,206 43.2,206.9 			"/>
			<polygon points="51.6,190.9 60,190.2 60,205.1 51.6,206 			"/>
			<polygon points="60,190.2 68.5,189.5 68.5,204.3 60,205.1 			"/>
			<polygon points="68.5,189.5 76.9,188.8 76.9,203.4 68.5,204.3 			"/>
			<polygon points="76.9,188.8 85.3,188.1 85.3,202.5 76.9,203.4 			"/>
			<polygon points="85.3,188.1 93.8,187.4 93.8,201.7 85.3,202.5 			"/>
			<polygon class="st3" points="93.8,187.4 102.2,186.7 102.2,200.8 93.8,201.7 			"/>
			<polygon points="102.2,186.7 110.6,186 110.6,199.9 102.2,200.8 			"/>
			<polygon points="110.6,186 119.1,185.3 119.1,199.1 110.6,199.9 			"/>
			<polygon points="119.1,185.3 127.5,184.6 127.5,198.2 119.1,199.1 			"/>
			<polygon points="127.5,184.6 135.9,184 135.9,197.3 127.5,198.2 			"/>
			<polygon points="1,211.2 9.5,210.3 9.4,226.3 1,227.3 			"/>
			<polygon points="9.5,210.3 17.9,209.5 17.9,225.3 9.4,226.3 			"/>
			<polygon points="17.9,209.5 26.3,208.6 26.3,224.2 17.9,225.3 			"/>
			<polygon points="26.3,208.6 34.8,207.7 34.7,223.2 26.3,224.2 			"/>
			<polygon points="34.8,207.7 43.2,206.9 43.2,222.2 34.7,223.2 			"/>
			<polygon points="43.2,206.9 51.6,206 51.6,221.1 43.2,222.2 			"/>
			<polygon points="51.6,206 60,205.1 60,220.1 51.6,221.1 			"/>
			<polygon points="60,205.1 68.5,204.3 68.5,219 60,220.1 			"/>
			<polygon points="68.5,204.3 76.9,203.4 76.9,218 68.5,219 			"/>
			<polygon points="76.9,203.4 85.3,202.5 85.3,217 76.9,218 			"/>
			<polygon points="85.3,202.5 93.8,201.7 93.8,215.9 85.3,217 			"/>
			<polygon points="93.8,201.7 102.2,200.8 102.2,214.9 93.8,215.9 			"/>
			<polygon points="102.2,200.8 110.6,199.9 110.6,213.8 102.2,214.9 			"/>
			<polygon points="110.6,199.9 119.1,199.1 119.1,212.8 110.6,213.8 			"/>
			<polygon points="119.1,199.1 127.5,198.2 127.5,211.8 119.1,212.8 			"/>
			<polygon points="127.5,198.2 135.9,197.3 135.9,210.7 127.5,211.8 			"/>
			<polygon points="1,227.3 9.4,226.3 9.4,242.3 1,243.5 			"/>
			<polygon points="9.4,226.3 17.9,225.3 17.9,241.1 9.4,242.3 			"/>
			<polygon points="17.9,225.3 26.3,224.2 26.3,239.9 17.9,241.1 			"/>
			<polygon points="26.3,224.2 34.7,223.2 34.7,238.7 26.3,239.9 			"/>
			<polygon points="34.7,223.2 43.2,222.2 43.2,237.4 34.7,238.7 			"/>
			<polygon points="43.2,222.2 51.6,221.1 51.6,236.2 43.2,237.4 			"/>
			<polygon points="51.6,221.1 60,220.1 60,235 51.6,236.2 			"/>
			<polygon points="60,220.1 68.5,219 68.5,233.8 60,235 			"/>
			<polygon points="68.5,219 76.9,218 76.9,232.6 68.5,233.8 			"/>
			<polygon points="76.9,218 85.3,217 85.3,231.4 76.9,232.6 			"/>
			<polygon points="85.3,217 93.8,215.9 93.8,230.2 85.3,231.4 			"/>
			<polygon points="93.8,215.9 102.2,214.9 102.2,229 93.8,230.2 			"/>
			<polygon points="102.2,214.9 110.6,213.8 110.6,227.8 102.2,229 			"/>
			<polygon points="110.6,213.8 119.1,212.8 119.1,226.5 110.6,227.8 			"/>
			<polygon points="119.1,212.8 127.5,211.8 127.5,225.3 119.1,226.5 			"/>
			<polygon points="127.5,211.8 135.9,210.7 135.9,224.1 127.5,225.3 			"/>
			<polygon points="1,243.5 9.4,242.3 9.4,258.3 1,259.7 			"/>
			<polygon points="9.4,242.3 17.9,241.1 17.9,256.9 9.4,258.3 			"/>
			<polygon points="17.9,241.1 26.3,239.9 26.3,255.5 17.9,256.9 			"/>
			<polygon points="26.3,239.9 34.7,238.7 34.7,254.1 26.3,255.5 			"/>
			<polygon points="34.7,238.7 43.2,237.4 43.2,252.7 34.7,254.1 			"/>
			<polygon points="43.2,237.4 51.6,236.2 51.6,251.4 43.2,252.7 			"/>
			<polygon points="51.6,236.2 60,235 60,250 51.6,251.4 			"/>
			<polygon points="60,235 68.5,233.8 68.5,248.6 60,250 			"/>
			<polygon points="68.5,233.8 76.9,232.6 76.9,247.2 68.5,248.6 			"/>
			<polygon points="76.9,232.6 85.3,231.4 85.3,245.8 76.9,247.2 			"/>
			<polygon points="85.3,231.4 93.8,230.2 93.8,244.4 85.3,245.8 			"/>
			<polygon points="93.8,230.2 102.2,229 102.2,243.1 93.8,244.4 			"/>
			<polygon points="102.2,229 110.6,227.8 110.6,241.7 102.2,243.1 			"/>
			<polygon points="110.6,227.8 119.1,226.5 119.1,240.3 110.6,241.7 			"/>
			<polygon points="119.1,226.5 127.5,225.3 127.5,238.9 119.1,240.3 			"/>
			<polygon points="127.5,225.3 135.9,224.1 135.9,237.5 127.5,238.9 			"/>
		</g>
	</g>
</g>
</svg>
